<svg width="64" height="64" viewBox="0 0 64 64" fill="none" xmlns="http://www.w3.org/2000/svg">
<path d="M50.6849 0.0924034C46.1634 0.679836 42.3896 3.88401 41.0011 8.33426C40.8231 8.93949 40.6273 10.1856 40.5561 11.1112L40.4671 12.8023L38.1352 15.152L35.7855 17.5196L34.0054 15.7573C31.8514 13.6211 31.3708 13.3541 29.8221 13.3541C27.7572 13.3541 26.0661 14.6892 25.6567 16.6473C25.5677 17.0745 25.4965 17.1101 24.4996 17.1101C22.4881 17.1101 20.8148 18.4452 20.4054 20.3855C20.2096 21.2756 20.2808 22.2902 20.5834 22.8777C20.6902 23.1091 20.5834 23.1981 20.0672 23.3583C18.4473 23.8567 17.2902 25.5122 17.308 27.3457L17.3258 28.3782L16.5604 28.574C15.5991 28.8232 14.4599 29.7666 13.9437 30.7635C13.6588 31.2975 13.552 31.8137 13.552 32.6504C13.552 34.0745 13.8369 34.6975 15.1897 36.086L16.1866 37.1006L14.5311 38.7739L12.8756 40.4294L11.1489 40.5362C5.5416 40.8388 1.12696 44.7373 0.165703 50.2912C-0.724346 55.489 2.03481 60.6335 6.91227 62.8764C9.83163 64.2293 13.6944 64.1759 16.7384 62.7518C20.6902 60.9005 23.4138 56.6283 23.4138 52.3383V51.0744L25.1049 49.3833L26.796 47.6922L32.7949 53.6911L38.7938 59.6901L38.3132 60.2063C37.5121 61.0251 37.6546 61.6126 38.8828 62.7874C40.0221 63.8733 40.4671 64.0157 41.0367 63.4461C41.5352 62.9476 41.4818 62.3958 40.8587 61.755L40.3247 61.2032L48.6022 52.9435L56.8796 44.666L59.6922 47.4786C61.5969 49.3655 62.6293 50.2734 62.8963 50.2734C63.3948 50.2734 64 49.6681 64 49.1697C64 48.6179 57.467 42.0849 56.933 42.0849C56.7194 42.0849 56.31 42.2807 56.0252 42.5299C55.7225 42.7791 55.4377 42.975 55.3843 42.975C55.1529 42.975 54.0137 41.0346 53.6754 40.0378C53.444 39.3792 53.1414 37.5635 52.8744 35.2315C52.3226 30.5143 52.287 30.2651 51.9487 29.1792C51.5393 27.8975 51.1121 27.0965 50.222 26.0106L49.4388 25.0316L50.2576 24.2305L51.0943 23.4295L52.7854 23.3405C57.7519 23.0913 61.8639 19.9049 63.3948 15.1164C64.445 11.8232 63.6618 6.66096 62.1131 6.66096C61.9351 6.66096 60.2262 8.20965 58.3215 10.1144L54.8325 13.5677L52.9634 13.3007C51.9309 13.1583 51.0409 12.9981 50.9697 12.9269C50.8985 12.8557 50.7383 11.9657 50.5959 10.9332L50.3288 9.06409L53.7822 5.5751C55.6869 3.6704 57.2356 1.96151 57.2356 1.7835C57.2356 0.608631 53.6754 -0.299217 50.6849 0.0924034ZM51.1299 5.20128C49.154 7.19499 48.1571 8.31646 48.1571 8.58347C48.1571 9.29551 48.8692 14.0484 49.0472 14.44C49.1362 14.6536 49.3498 14.8672 49.5278 14.9206C49.955 15.0452 54.8325 15.7395 55.3131 15.7395C55.5801 15.7395 56.6838 14.7604 58.6597 12.7845L61.6325 9.84734L61.7393 10.8264C62.0063 13.4609 60.956 16.4159 59.1047 18.3028C57.2534 20.1897 55.2241 21.062 52.2336 21.24C50.1686 21.3646 49.9372 21.4892 48.62 22.842L47.9079 23.5719L46.021 21.7028C44.3299 20.0651 43.9917 19.8159 43.0661 19.5489C41.8022 19.1929 40.4849 19.3709 39.4347 20.0829L38.776 20.5279L38.0284 19.7625L37.2985 19.0148L39.7017 16.6295C41.0189 15.3122 42.2294 13.9772 42.3718 13.6745C42.532 13.3363 42.6388 12.5887 42.6388 11.8232C42.6388 8.77928 43.9561 6.10913 46.4126 4.11543C48.0859 2.76255 49.7058 2.22852 52.2514 2.22852L54.1027 2.21072L51.1299 5.20128ZM30.5876 15.6327C30.908 15.7751 32.5457 17.2703 34.2368 18.9792L37.2985 22.0588L35.7855 23.5719L34.2724 25.085L31.2284 22.0588C29.5551 20.3855 28.0776 18.8012 27.9174 18.5164C27.5792 17.8756 27.7038 16.7541 28.1666 16.2379C28.4871 15.8641 29.3771 15.4012 29.7865 15.3834C29.9111 15.3834 30.2672 15.4902 30.5876 15.6327ZM25.2829 19.3709C25.4787 19.4243 27.241 21.062 29.1813 23.0201L32.7237 26.5625L32.7415 28.1111C32.7771 29.6242 32.7593 29.6598 32.2787 29.909C32.0116 30.0514 31.4954 30.1583 31.1216 30.1583C30.4986 30.1583 30.2494 29.9446 26.4577 26.1708L22.4703 22.1834L22.4525 21.3824C22.4347 20.3855 22.9153 19.6557 23.7876 19.3531C24.375 19.1572 24.5174 19.1572 25.2829 19.3709ZM42.6922 21.685C43.5111 22.041 48.8692 27.5593 49.4388 28.6452C50.044 29.8378 50.2042 30.6211 50.7383 35.3383C51.2901 40.198 51.8241 41.9781 53.355 43.9006L53.9068 44.6126L47.1247 51.3948L40.3247 58.1948L34.3258 52.1959L28.309 46.1791L34.041 40.4472C37.1739 37.2786 39.8085 34.5373 39.8619 34.3237C40.0043 33.8431 39.3634 33.0064 38.8472 33.0064C38.5802 33.0064 35.9991 35.4629 30.3028 41.1415C25.8169 45.6273 21.9719 49.5257 21.7761 49.7927C21.4913 50.2022 21.3845 50.7184 21.2777 52.2849C21.0996 54.688 20.6902 55.9519 19.5688 57.6074C17.4683 60.6869 13.7834 62.2534 10.1164 61.5948C4.77616 60.6513 1.23376 55.5602 2.31962 50.3802C3.26307 45.8231 7.12588 42.6189 11.6473 42.6189C13.552 42.6189 13.73 42.5299 15.8128 40.5006L17.7353 38.6315L19.907 40.7854C21.0996 41.9781 22.3635 43.0818 22.7017 43.2598C23.5562 43.687 25.4253 43.687 26.2619 43.2598C27.8818 42.4231 28.8609 40.7854 28.7185 39.1477C28.6651 38.4001 28.6829 38.3467 29.1991 38.2399C31.264 37.7949 32.6169 35.9792 32.4567 33.8609C32.4211 33.3446 32.3143 32.7928 32.2431 32.6326C32.1541 32.419 32.2609 32.2944 32.7059 32.1164C33.0263 31.9918 33.5425 31.6891 33.8451 31.4755L34.4148 31.0661L35.1802 31.4399C35.7499 31.7247 36.3017 31.8315 37.2095 31.8315C38.7048 31.8493 39.5415 31.5823 40.6273 30.7457C41.8378 29.82 42.8168 29.9624 42.8168 31.0661C42.8168 31.4399 42.5498 31.8671 41.82 32.6682C40.6451 33.9499 40.0577 35.1247 39.7729 36.8336C39.3634 39.2011 40.3425 41.8357 42.2472 43.5446C43.0839 44.31 43.5467 44.3812 44.0629 43.865C44.6147 43.3132 44.4901 42.8859 43.5645 41.8535C42.3362 40.5006 41.8556 39.4326 41.8556 37.9907C41.8378 36.3886 42.2828 35.3561 43.6357 33.8431C44.864 32.4902 45.0598 31.9562 44.8996 30.5677C44.7571 29.2148 43.7603 28.2179 42.4074 28.0755C41.2326 27.9331 40.3959 28.1467 39.7195 28.752C38.2598 30.0158 36.4085 30.1227 35.2692 28.9834C34.397 28.0933 34.5394 27.8441 37.708 24.6934C41.0545 21.3468 41.4106 21.1332 42.6922 21.685ZM22.2745 25.352C22.8263 25.5656 29.4661 32.0808 30.0001 32.9352C30.5164 33.754 30.463 34.7509 29.8577 35.4807C29.4483 35.9792 29.2169 36.086 28.4158 36.175L27.4902 36.264L23.574 32.3656C19.2127 28.0221 18.9991 27.7195 19.6044 26.4734C19.818 26.064 20.174 25.6724 20.5656 25.4944C21.2777 25.1206 21.5981 25.1028 22.2745 25.352ZM18.6609 30.7101C19.2127 30.9949 26.0483 37.8127 26.3687 38.3823C27.241 40.0378 25.5677 42.0137 23.841 41.3729C23.2536 41.1593 16.2222 34.2525 15.8306 33.5048C15.5101 32.8818 15.5101 32.4012 15.8662 31.6535C16.3468 30.6567 17.6641 30.2117 18.6609 30.7101Z" fill="#405BAE"/>
<path d="M7.2682 47.6388C5.86192 49.0451 4.72266 50.3089 4.72266 50.487C4.72266 50.665 4.88287 51.4304 5.09648 52.1958C5.29229 52.9435 5.66611 54.332 5.89752 55.2576C6.14673 56.1833 6.48495 57.0733 6.64516 57.2513C6.82317 57.4115 7.71322 57.7498 8.63887 57.999C9.56452 58.2304 10.953 58.6042 11.7006 58.8C12.4661 59.0136 13.2315 59.1738 13.4095 59.1738C13.6765 59.1738 18.7854 54.243 18.7854 53.9759C18.7854 53.4953 16.9875 47.3362 16.7917 47.1226C16.5781 46.9268 10.419 45.1111 9.93834 45.1111C9.86714 45.1111 8.67447 46.2503 7.2682 47.6388ZM15.1718 48.7425C15.1896 48.7603 15.4566 49.6859 15.7593 50.8074C16.0619 51.9288 16.3467 52.9791 16.3823 53.1393C16.4713 53.4063 16.0085 53.9403 13.9258 55.9519L12.9289 56.9131L10.7394 56.3257C9.52892 56.0053 8.46086 55.667 8.35405 55.5958C8.24725 55.5068 7.89123 54.421 7.57081 53.1927L6.98338 50.9676L8.72788 49.2053L10.4546 47.4608L12.8043 48.0838C14.086 48.422 15.154 48.7247 15.1718 48.7425Z" fill="#405BAE"/>
</svg>
