<svg width="64" height="60" viewBox="0 0 64 60" fill="none" xmlns="http://www.w3.org/2000/svg">
<path d="M31.25 0.233765C31.0125 0.455825 31 0.619449 31 2.67643V4.89704L31.325 5.13079C31.5125 5.27103 31.8125 5.37622 32 5.37622C32.1875 5.37622 32.4875 5.27103 32.675 5.13079L33 4.89704V2.67643C33 0.619449 32.9875 0.455825 32.75 0.233765C32.5875 0.0818286 32.3375 1.66893e-05 32 1.66893e-05C31.6625 1.66893e-05 31.4125 0.0818286 31.25 0.233765Z" fill="#405CAF"/>
<path d="M21.7874 4.88536C21.2374 4.96717 20.8499 5.70347 21.0749 6.22941C21.1124 6.33459 22.1499 7.2579 23.3874 8.29808C25.9499 10.4486 26.2124 10.5771 26.8749 9.95769C27.2749 9.58369 27.3374 9.22138 27.0874 8.81232C26.8374 8.39158 22.6499 4.94379 22.3499 4.89704C22.1874 4.86198 21.9374 4.86198 21.7874 4.88536Z" fill="#405CAF"/>
<path d="M41.6618 4.88477C41.2993 4.93152 37.1243 8.44943 36.8868 8.90523C36.6618 9.32598 36.7993 9.75841 37.2743 10.0857C37.8743 10.5064 38.2493 10.296 40.6618 8.26243C41.8743 7.24562 42.8868 6.33401 42.9243 6.22882C43.2368 5.46914 42.5743 4.75621 41.6618 4.88477Z" fill="#405CAF"/>
<path d="M9.10001 7.54989C8.66251 7.76027 8.48751 8.0992 7.45001 10.7055L6.60001 12.8209L5.075 12.9027C0.5 13.1365 0.850001 13.0897 0.4 13.5105C0.0625001 13.826 0 13.9663 0 14.4338C0 14.726 0.05 15.0649 0.1125 15.1701C0.175 15.2753 1.2125 16.1051 2.4 17.005L4.575 18.6295L3.85 21.154C3.3625 22.8136 3.1375 23.7837 3.1875 24.0291C3.225 24.2278 3.425 24.5434 3.6375 24.7304C3.95 25.0109 4.125 25.0693 4.6125 25.0693C5.125 25.0693 5.35 24.9875 6.13751 24.4966C6.65001 24.1811 7.68751 23.5383 8.46251 23.0591L9.86251 22.2176L11.7125 23.3513C14.7875 25.2563 14.9625 25.3264 15.75 24.9524C16.2625 24.707 16.5 24.333 16.5 23.7837C16.5 23.5266 16.1875 22.2643 15.8125 20.9787C15.275 19.1438 15.1625 18.6179 15.2875 18.5127C15.3625 18.4425 16.2875 17.753 17.325 16.9699C18.3625 16.1986 19.3375 15.4155 19.4875 15.2402C19.9875 14.6441 19.675 13.4637 18.9375 13.2066C18.775 13.1482 17.4125 13.043 15.9125 12.9728C14.4125 12.891 13.15 12.7975 13.1125 12.7625C13.075 12.7157 12.6625 11.734 12.2 10.5769C11.7375 9.41988 11.275 8.30957 11.175 8.12257C10.8375 7.43302 9.85001 7.16421 9.10001 7.54989ZM10.6125 12.33C10.975 13.23 11.35 14.0948 11.4625 14.2351C11.7375 14.6441 12.375 14.8428 13.4625 14.8545C14 14.8662 14.9 14.9013 15.4625 14.9363L16.4875 15.0181L14.8125 16.2687C12.625 17.9049 12.6625 17.7997 13.3625 20.2307C13.65 21.2241 13.9125 22.1007 13.9375 22.1708C14 22.3345 13.7375 22.1942 11.7 20.932C9.81251 19.7632 9.86251 19.7632 7.03751 21.528C6.32501 21.9721 5.75 22.2994 5.75 22.2643C5.75 22.2293 5.97501 21.4462 6.25001 20.5112C6.77501 18.7464 6.85001 18.1153 6.58751 17.6829C6.50001 17.5543 5.7125 16.8881 4.8125 16.2219C3.65 15.3571 3.2625 15.0065 3.4375 14.9948C3.575 14.9714 4.5625 14.913 5.625 14.8662C6.91251 14.7961 7.66251 14.7143 7.85001 14.5974C8.22501 14.387 8.43751 13.9896 9.20001 12.0729C9.53751 11.2314 9.85001 10.5652 9.88751 10.612C9.92501 10.6587 10.25 11.4301 10.6125 12.33Z" fill="#405CAF"/>
<path d="M31.175 7.58492C30.9 7.74854 30.7 8.00566 30.525 8.4381C30.3875 8.77703 29.9375 9.88733 29.5125 10.9041C29.1 11.9326 28.75 12.7741 28.725 12.7975C28.6875 12.8326 23.9125 13.0897 23.3 13.0897C23.1 13.0897 22.8125 13.2416 22.55 13.4871C22.2 13.8143 22.125 13.9662 22.125 14.387C22.1375 14.6675 22.2 15.0181 22.2875 15.1584C22.375 15.2986 23.4 16.1284 24.5625 17.0166C25.7375 17.8932 26.6875 18.6763 26.675 18.7464C26.6625 18.8165 26.3625 19.8684 26 21.0956C25.65 22.311 25.35 23.5148 25.35 23.7486C25.3375 24.5667 26.125 25.2212 26.975 25.081C27.225 25.0459 28.325 24.4615 29.7 23.62L32 22.2175L34.3 23.62C35.675 24.4615 36.775 25.0459 37.025 25.081C37.875 25.2212 38.6625 24.5667 38.65 23.7486C38.65 23.5148 38.35 22.311 38 21.0956C37.6375 19.8684 37.3375 18.8165 37.325 18.7464C37.3125 18.6763 38.2625 17.8932 39.4375 17.0166C40.6 16.1401 41.625 15.2986 41.7125 15.1584C42.0875 14.5272 41.8 13.5455 41.1375 13.2066C41.0125 13.1481 39.65 13.0429 38.1125 12.9728C36.575 12.891 35.3 12.8209 35.275 12.7975C35.25 12.7858 34.8125 11.7223 34.3 10.46C33.7875 9.18609 33.3125 8.05241 33.2375 7.93554C32.925 7.38623 31.8375 7.19923 31.175 7.58492ZM32.825 12.4702C33.3875 13.8727 33.6375 14.3519 33.9 14.5389C34.2 14.7376 34.5375 14.7844 36.0875 14.8662C37.1125 14.9129 38.1 14.9714 38.3 14.983C38.625 15.0181 38.5 15.135 36.95 16.2803C34.775 17.9049 34.825 17.788 35.5 20.1722C35.775 21.1306 36.0375 22.0072 36.075 22.124C36.1125 22.2409 35.45 21.902 34.3 21.2124C32.825 20.3125 32.375 20.1021 32 20.1021C31.625 20.1021 31.175 20.3125 29.7 21.2124C28.55 21.902 27.8875 22.2409 27.925 22.124C27.9625 22.0072 28.225 21.1306 28.5 20.1722C29.175 17.788 29.225 17.9049 27.05 16.2803C25.5 15.135 25.375 15.0181 25.7 14.983C25.9 14.9714 26.8875 14.9129 27.9125 14.8662C29.4625 14.7844 29.8 14.7376 30.1 14.5389C30.3625 14.3519 30.6125 13.8727 31.175 12.4702C31.5875 11.4534 31.95 10.6353 32 10.6353C32.05 10.6353 32.4125 11.4534 32.825 12.4702Z" fill="#405CAF"/>
<path d="M53.3491 7.57327C52.9241 7.80701 52.8616 7.93558 51.7991 10.5769C51.3366 11.734 50.9241 12.7157 50.8866 12.7625C50.8491 12.7975 49.5866 12.891 48.0741 12.9728C46.5741 13.043 45.2116 13.1598 45.0491 13.2183C44.3241 13.4637 44.0116 14.6558 44.5116 15.2402C44.6616 15.4155 45.6366 16.1986 46.6741 16.9699C47.7116 17.753 48.6366 18.4425 48.7116 18.5127C48.8366 18.6179 48.7241 19.1438 48.1866 20.9787C47.8116 22.2643 47.4991 23.5266 47.4991 23.7837C47.4991 24.333 47.7366 24.707 48.2491 24.9524C49.0366 25.3264 49.2116 25.2563 52.2866 23.3513L54.1366 22.2176L55.5366 23.0591C56.3116 23.5383 57.3491 24.1811 57.8616 24.4966C58.6491 24.9875 58.8741 25.0693 59.3866 25.0693C59.8741 25.0693 60.0491 25.0109 60.3616 24.7304C60.5741 24.5434 60.7741 24.2278 60.8116 24.0291C60.8616 23.7837 60.6366 22.8136 60.1616 21.154L59.4241 18.6412L61.4991 17.0868C62.6366 16.2336 63.6616 15.4272 63.7866 15.287C63.9241 15.135 63.9991 14.8545 63.9991 14.4688C63.9991 13.9663 63.9366 13.826 63.5866 13.4988C63.1366 13.078 63.2241 13.0897 59.0491 12.9027L57.4116 12.8326L56.5616 10.7055C56.0866 9.54844 55.5991 8.39138 55.4741 8.15764C55.0866 7.40964 54.0866 7.14083 53.3491 7.57327ZM55.7991 14.3169C56.0491 14.6792 56.6866 14.8428 57.9366 14.8545C58.4866 14.8662 59.3616 14.9013 59.8741 14.948L60.7991 15.0181L59.1866 16.2219C58.2866 16.8881 57.4991 17.5543 57.4116 17.6829C57.1491 18.1153 57.2241 18.7464 57.7491 20.5112C58.0241 21.4462 58.2491 22.2293 58.2491 22.2643C58.2491 22.2994 57.5866 21.9137 56.7866 21.4111C54.1616 19.7632 54.1866 19.7632 52.2991 20.932C51.5616 21.3878 50.7491 21.8786 50.4866 22.0423L50.0116 22.3111L50.1866 21.7618C50.2741 21.4579 50.5366 20.5813 50.7491 19.8217C51.3116 17.8465 51.3241 17.8699 49.1866 16.2687L47.5116 15.0181L48.5366 14.9363C49.0991 14.9013 49.9991 14.8662 50.5366 14.8545C51.6241 14.8428 52.2616 14.6441 52.5366 14.2351C52.6866 14.0247 53.3116 12.5521 54.0741 10.6354C54.1116 10.5419 54.4741 11.2548 54.8741 12.2482C55.2741 13.23 55.6991 14.165 55.7991 14.3169Z" fill="#405CAF"/>
<path d="M30.2496 27.3018C28.2871 27.6875 26.1121 29.1485 25.0871 30.7496C23.6871 32.9702 23.5621 35.7752 24.7746 38.0309C25.2746 38.9776 26.0496 39.9125 26.7871 40.4619C27.2996 40.8359 27.3621 40.9177 27.1621 40.9761C24.4246 41.876 22.1621 43.372 20.2871 45.5108L19.8996 45.9666L19.2246 45.3238C18.2996 44.4473 17.3621 43.8045 16.1496 43.2435L15.1246 42.7643L15.7246 42.1215C16.4746 41.3384 16.9621 40.4385 17.1996 39.41C17.4121 38.4166 17.4121 38.0075 17.1871 36.9907C16.9371 35.8921 16.4871 35.0623 15.6746 34.2442C14.3496 32.9118 12.9871 32.3508 11.0496 32.3508C8.09962 32.3391 5.68711 34.0572 4.93711 36.7102C4.69961 37.5049 4.69961 38.9191 4.92461 39.6905C5.16211 40.5203 5.81211 41.6306 6.43711 42.2617L6.96211 42.7876L6.18711 43.1149C3.47461 44.2719 1.16211 46.6796 0.199609 49.356C-0.0878913 50.1624 -0.0628912 51.3078 0.262109 51.9506C0.599609 52.6051 1.56211 53.4349 2.22461 53.6219C2.57461 53.7271 4.71211 53.7621 9.89962 53.7621H17.0996L17.1496 55.1412C17.1996 56.3801 17.2371 56.5905 17.5871 57.2917C18.0746 58.2501 18.8371 58.9864 19.8246 59.4422L20.5621 59.7811H31.9996H43.4371L44.1496 59.4539C45.1371 58.9981 45.9371 58.2384 46.4121 57.2917C46.7621 56.5905 46.7996 56.3801 46.8496 55.1412L46.8996 53.7621H54.0997C59.2872 53.7621 61.4247 53.7271 61.7747 53.6219C62.4372 53.4349 63.3997 52.6051 63.7372 51.9506C64.0622 51.3078 64.0872 50.1624 63.7997 49.356C62.8372 46.6796 60.5247 44.2719 57.8122 43.1149L57.0372 42.7876L57.5622 42.2617C58.6247 41.1982 59.2497 39.6905 59.2497 38.2296C59.2497 36.5816 58.6622 35.2142 57.4497 34.0688C55.3997 32.1171 52.0371 31.7431 49.5996 33.204C48.7996 33.6948 47.7246 34.8052 47.3246 35.5531C46.9746 36.2193 46.6246 37.5517 46.6246 38.2179C46.6246 39.5152 47.3246 41.1631 48.2871 42.1448L48.8871 42.7526L47.8496 43.2435C46.6371 43.8045 45.6996 44.4473 44.7746 45.3238L44.0996 45.9666L43.7121 45.5108C41.8371 43.372 39.5746 41.876 36.8371 40.9761C36.6371 40.9177 36.6996 40.8359 37.2121 40.4619C38.3496 39.6087 39.3871 38.0659 39.8246 36.57C40.1371 35.4713 40.0996 33.613 39.7496 32.5495C39.3121 31.2288 38.7746 30.4107 37.6871 29.3822C36.8871 28.6342 36.4746 28.3303 35.6246 27.9446C33.8871 27.1499 32.0746 26.9278 30.2496 27.3018ZM33.1496 29.2303C34.9371 29.5809 36.5371 30.7496 37.3121 32.269C38.0246 33.7065 38.1121 35.1558 37.5746 36.5816C36.9371 38.2296 35.1746 39.6905 33.3371 40.0879C32.6621 40.2281 31.3371 40.2281 30.6621 40.0879C28.8246 39.6905 27.0621 38.2296 26.4246 36.5816C24.8746 32.5495 28.7121 28.3654 33.1496 29.2303ZM12.8246 34.7233C14.5996 35.5181 15.5371 37.3296 15.0746 39.0477C14.5746 40.8359 13.1746 41.9462 11.2496 42.0513C9.93712 42.1215 9.06212 41.7942 8.11211 40.9177C7.18711 40.0528 6.83711 39.2113 6.89961 38.0426C7.06211 35.2025 10.1121 33.4962 12.8246 34.7233ZM54.4371 34.5597C55.3372 34.8285 56.4997 35.9505 56.8747 36.8738C57.4497 38.3347 56.9997 40.006 55.7372 41.0696C53.8497 42.6591 50.9621 42.3318 49.5496 40.3684C48.6246 39.0711 48.5496 37.6803 49.3371 36.3245C50.3371 34.6182 52.3621 33.9169 54.4371 34.5597ZM33.4371 42.3202C38.6871 42.9279 42.9871 46.3874 44.3746 51.1325C44.7246 52.3012 44.8746 55.223 44.6246 56.0295C44.4371 56.684 43.8746 57.3151 43.2121 57.654L42.6871 57.9111H31.9996H21.3121L20.7871 57.654C20.1246 57.3151 19.5621 56.684 19.3746 56.0295C19.1246 55.223 19.2746 52.3012 19.6246 51.1325C20.3746 48.5612 22.1496 46.1302 24.4371 44.5524C26.0371 43.4421 28.4246 42.5539 30.4371 42.3202C31.6996 42.1799 32.1746 42.1799 33.4371 42.3202ZM13.2121 44.3538C14.9121 44.7161 16.6746 45.7095 17.9246 46.9951C18.3121 47.4042 18.6246 47.7665 18.6246 47.8132C18.6246 47.86 18.4496 48.2807 18.2371 48.7482C18.0246 49.2157 17.7121 50.0806 17.5621 50.665L17.2746 51.7168L10.0621 51.7519L2.86211 51.7753L2.47461 51.4246C2.12461 51.0974 2.09961 51.0156 2.14961 50.478C2.28711 49.169 3.84961 46.96 5.36211 45.9316C7.77461 44.2836 10.4121 43.7577 13.2121 44.3538ZM55.1872 44.3771C58.0747 45.055 60.4497 46.9717 61.5747 49.5196C61.9872 50.4663 61.9747 51.0039 61.5122 51.4363L61.1372 51.7753L53.9371 51.7519L46.7246 51.7168L46.4371 50.665C46.2746 50.0806 45.9746 49.2274 45.7621 48.7482C45.5496 48.269 45.3746 47.8483 45.3746 47.8015C45.3746 47.7665 45.6871 47.4042 46.0746 46.9951C47.5996 45.4173 49.6746 44.4239 51.9996 44.1434C52.6996 44.0499 54.3746 44.1784 55.1872 44.3771Z" fill="#405CAF"/>
</svg>
