<svg width="66" height="65" viewBox="0 0 66 65" fill="none" xmlns="http://www.w3.org/2000/svg">
<path d="M33.3132 18.8339C32.035 21.187 30.6509 23.519 29.3251 25.7525C29.0908 26.1471 28.8584 26.5387 28.6287 26.9268C28.0735 27.8648 27.3993 28.8308 26.7501 29.7609C26.3722 30.3024 26.0027 30.8317 25.6702 31.3362C24.7199 32.7782 23.952 34.1755 23.6025 35.6619L23.6025 35.662C23.163 37.5296 23.4746 39.5581 24.4341 41.2874L33.3132 18.8339ZM33.3132 18.8339C33.5164 19.2759 33.7267 19.7118 33.9403 20.143L33.9405 20.1433C34.5088 21.2895 35.1849 22.3906 35.8278 23.4375C35.8865 23.5331 35.9449 23.6283 36.003 23.723L33.3132 18.8339ZM42.7439 40.2216C43.4694 38.52 43.7119 36.6891 43.2295 35.0592L42.7439 40.2216ZM42.7439 40.2216C41.9459 42.0923 40.5959 43.7607 38.8285 44.8567C35.9742 46.6247 32.0404 46.7765 28.9191 45.3396C27.0011 44.4558 25.3963 43.0179 24.4344 41.288L42.7439 40.2216ZM40.9334 31.0889C41.9385 32.4722 42.8236 33.6901 43.2294 35.059L36.003 23.7231C37.5064 26.176 39.1087 28.575 40.8065 30.9143L40.8066 30.9144C40.849 30.9729 40.8913 31.031 40.9334 31.0889Z" stroke="#304B9D" stroke-width="2.14704"/>
<path d="M59.9173 30.6408C57.4928 12.117 42.7432 6.92027 35.6715 6.6374V7.36477L32.2771 4.1522L35.6715 1.00024V2.09131C57.8807 5.24326 63.6755 22.5184 63.7967 30.762L61.9176 28.2768L59.9173 30.6408Z" fill="#304B9D" stroke="#00A1CF" stroke-width="0.122008"/>
<path d="M31.6375 5.96724C13.037 7.70861 7.30111 22.257 6.75823 29.3135L7.48512 29.3402L4.14982 32.6141L1.1249 29.1061L2.21522 29.1462C6.18222 7.06803 23.6589 1.91282 31.9014 2.09499L29.3487 3.88133L31.6375 5.96724Z" fill="#304B9D" stroke="#00A1CF" stroke-width="0.122008"/>
<path d="M6.65832 34.6882C8.81064 53.2457 23.4823 58.6584 30.5491 59.0451L30.5598 58.3178L33.9066 61.5798L30.4663 64.6816L30.4823 63.5907C8.32182 60.1129 2.78136 42.7545 2.78119 34.5101L4.62354 37.0226L6.65832 34.6882Z" fill="#304B9D" stroke="#00A1CF" stroke-width="0.122008"/>
<path d="M35.3141 59.9189C53.8419 57.5248 59.0628 42.7838 59.3573 35.7125L58.6299 35.7114L61.848 32.3222L64.9944 35.7218L63.9034 35.72C60.7149 57.924 43.4303 63.6904 35.1865 63.7981L37.6748 61.9231L35.3141 59.9189Z" fill="#304B9D" stroke="#00A1CF" stroke-width="0.122008"/>
</svg>
