<svg width="66" height="65" viewBox="0 0 66 65" fill="none" xmlns="http://www.w3.org/2000/svg">
<path d="M33.3138 18.8339C32.0357 21.187 30.6515 23.5189 29.3257 25.7524C29.0915 26.1471 28.859 26.5387 28.6293 26.9268C28.0741 27.8648 27.3999 28.8308 26.7507 29.7609C26.3728 30.3024 26.0033 30.8317 25.6708 31.3362C24.7205 32.7782 23.9526 34.1755 23.6031 35.6619L23.6031 35.662C23.1637 37.5296 23.4752 39.5581 24.4347 41.2874L33.3138 18.8339ZM33.3138 18.8339C33.517 19.2759 33.7273 19.7118 33.9409 20.143L33.9411 20.1433C34.5094 21.2895 35.1855 22.3906 35.8284 23.4375C35.8871 23.5331 35.9455 23.6283 36.0036 23.723L33.3138 18.8339ZM42.7445 40.2216C43.47 38.52 43.7125 36.6891 43.2301 35.0592L42.7445 40.2216ZM42.7445 40.2216C41.9466 42.0923 40.5965 43.7607 38.8291 44.8567C35.9748 46.6247 32.0411 46.7765 28.9197 45.3396C27.0017 44.4558 25.3969 43.0179 24.4351 41.288L42.7445 40.2216ZM40.934 31.0889C41.9392 32.4722 42.8242 33.6901 43.23 35.059L36.0036 23.7231C37.507 26.176 39.1094 28.575 40.8071 30.9143L40.8072 30.9144C40.8496 30.9729 40.8919 31.031 40.934 31.0889Z" stroke="#405CAF" stroke-width="2.14704"/>
<path d="M59.9176 30.6408C57.493 12.117 42.7435 6.92027 35.6718 6.6374V7.36477L32.2773 4.1522L35.6718 1.00024V2.09131C57.8809 5.24326 63.6757 22.5184 63.7969 30.762L61.9179 28.2768L59.9176 30.6408Z" fill="#405CAF" stroke="#00A1CF" stroke-width="0.122008"/>
<path d="M31.6375 5.96724C13.037 7.70861 7.30111 22.257 6.75823 29.3135L7.48512 29.3402L4.14982 32.6141L1.1249 29.1061L2.21522 29.1462C6.18222 7.06803 23.6589 1.91282 31.9014 2.09499L29.3487 3.88133L31.6375 5.96724Z" fill="#405CAF" stroke="#00A1CF" stroke-width="0.122008"/>
<path d="M6.6593 34.6882C8.81162 53.2457 23.4833 58.6584 30.5501 59.0451L30.5607 58.3178L33.9076 61.5798L30.4673 64.6816L30.4833 63.5907C8.32279 60.1129 2.78233 42.7545 2.78217 34.5101L4.62452 37.0226L6.6593 34.6882Z" fill="#405CAF" stroke="#00A1CF" stroke-width="0.122008"/>
<path d="M35.3141 59.9189C53.8419 57.5248 59.0628 42.7838 59.3573 35.7125L58.6299 35.7114L61.848 32.3222L64.9944 35.7218L63.9034 35.72C60.7149 57.924 43.4303 63.6904 35.1865 63.7981L37.6748 61.9231L35.3141 59.9189Z" fill="#405CAF" stroke="#00A1CF" stroke-width="0.122008"/>
</svg>
