<svg width="64" height="67" viewBox="0 0 64 67" fill="none" xmlns="http://www.w3.org/2000/svg">
<path d="M11.0883 0.97551C10.1283 1.50887 9.26567 2.04222 9.18219 2.17231C9.0848 2.28939 9.00132 2.6146 9.00132 2.88779C9.00132 3.29106 9.09871 3.46017 9.59959 3.91547C9.91959 4.20166 10.3926 4.59193 10.6431 4.77405L11.0883 5.09926L11.1022 6.3611C11.1022 7.05056 11.1439 8.0002 11.1996 8.48152L11.3109 9.3531L12.7022 10.758C13.4674 11.5255 14.1492 12.241 14.2048 12.3321C14.2744 12.4362 13.8431 13.2687 13.1335 14.4785C12.4796 15.5712 11.9092 16.677 11.8535 16.9372C11.7839 17.3144 11.3109 17.8738 9.73872 19.4999C8.62566 20.6576 7.63783 21.5943 7.54044 21.5943C7.45696 21.5943 7.01174 21.4772 6.55261 21.3341C5.32825 20.9308 4.72998 20.9438 4.34041 21.3601C4.15954 21.5552 3.72824 22.5179 3.38041 23.5195C2.65692 25.5359 2.65692 25.8481 3.32475 26.3164C3.81171 26.6546 5.42564 29.5296 5.35607 29.9588C5.32825 30.18 4.91085 30.3621 2.92127 31.0256C1.59952 31.4678 0.430819 31.9101 0.319514 31.9882C0.0134245 32.2223 -0.0978807 32.8728 0.0969034 33.3021C0.208209 33.5492 0.528211 33.8094 1.09865 34.0826C1.69692 34.3818 1.8917 34.5379 1.78039 34.642C1.69692 34.72 1.62735 35.0062 1.62735 35.2664C1.62735 35.6566 1.83605 36.0469 2.6291 37.1656L3.64476 38.5706L5.1752 39.3121C7.55435 40.4698 7.77696 40.4568 8.89001 39.0779L9.47437 38.3494L9.79437 39.0259C10.1005 39.6763 10.1005 39.7284 9.90567 40.5999C9.79437 41.1073 9.69698 41.6536 9.69698 41.8228C9.69698 42.0829 18.4762 64.4969 19.1162 65.8628C19.2414 66.136 19.4501 66.4091 19.5892 66.4872C20.0484 66.7083 20.8971 66.5783 22.1492 66.1099C23.3319 65.6546 23.4153 65.5896 23.7771 64.9782C23.9858 64.614 24.751 63.6513 25.4884 62.8318C26.2258 62.0122 26.9215 61.1536 27.0188 60.9455C27.1302 60.7244 27.4502 59.3064 27.7284 57.7714L28.2432 54.9875L27.9371 54.1029L27.631 53.2184L28.1319 51.7354C28.6049 50.3304 28.6606 50.2394 29.1615 49.9792C29.4536 49.8231 29.885 49.693 30.1215 49.693C30.8728 49.693 31.2067 49.4719 31.9719 48.4702C32.5563 47.7027 32.8485 47.4555 33.3076 47.2864C34.1841 46.9742 36.118 45.0229 36.5215 44.0342L36.8554 43.2537L39.012 42.161C41.3772 40.9512 41.4607 40.8601 41.6137 39.6243C41.6694 39.13 41.7946 38.7917 41.9477 38.6877C42.0729 38.5836 42.4207 38.3624 42.699 38.1673L43.2138 37.8291L44.3546 38.0242C46.0103 38.3104 46.5668 38.0632 46.5668 37.0616C46.5668 36.8404 46.1633 35.2404 45.6625 33.5362C45.1616 31.8191 44.7581 30.3491 44.7581 30.258C44.7581 30.167 45.259 29.9068 45.8712 29.6726L46.9842 29.2564L47.5686 29.6336C48.5147 30.232 49.0155 30.4402 49.5582 30.4402C49.8225 30.4402 50.0451 30.5052 50.0451 30.5702C50.0451 30.6483 49.7529 31.1166 49.3912 31.624C48.5981 32.7427 48.5286 33.3021 49.1268 33.7704C49.4051 34.0045 49.6695 34.0826 50.1703 34.0826H50.8382L51.9095 35.4485C53.0643 36.9055 53.259 37.0746 53.9408 37.0746C54.706 37.0746 54.9704 36.6713 55.2486 35.0582C55.6382 32.6907 55.4991 32.9248 56.4173 33.0029C57.1408 33.0679 57.2382 33.0419 57.5443 32.7297C57.8365 32.4435 57.9339 32.0793 58.2121 30.4792C58.4904 28.8791 58.6017 28.4758 58.9495 27.9815C59.1861 27.6693 59.3669 27.24 59.3669 27.0579C59.3669 26.7197 59.4643 26.6676 61.2452 26.0823C62.4139 25.705 63.207 25.3668 63.3183 25.2107C63.4296 25.0676 63.6243 24.4041 63.7635 23.7407L64 22.5179L62.8452 20.8788C61.0922 18.4071 61.4122 18.6023 59.0608 18.6153C56.0556 18.6283 55.6799 18.7063 54.9982 19.4088C54.6782 19.734 53.5791 20.4885 52.4799 21.139C50.379 22.3618 49.7668 22.8561 49.7668 23.3244C49.7529 24.0919 49.6416 24.196 48.7929 24.196H47.9999L46.2051 22.8301C44.5772 21.5943 44.3546 21.4642 43.8398 21.4642C43.1024 21.4642 42.8798 21.7113 42.0451 23.4155C41.6833 24.17 41.3772 24.7944 41.3633 24.8204C41.3216 24.8464 28.0762 19.5649 27.9789 19.4738C27.9371 19.4348 28.0762 18.8234 28.271 18.1079C28.8276 16.0396 28.7302 15.6623 27.4919 15.2851C26.8241 15.0769 26.7267 14.9859 25.9058 13.8021C24.9736 12.5012 24.9875 12.5272 25.6136 12.163C25.7388 12.0849 25.8919 11.8378 25.9614 11.6166C26.0728 11.2654 26.031 11.0702 25.6971 10.4588L25.3075 9.73035L26.5458 7.33675C27.3667 5.76271 27.7841 4.80006 27.7841 4.50087C27.7841 3.96751 27.478 3.69432 25.8501 2.79673L24.7093 2.18532L22.191 2.3024L19.6727 2.43249L16.7231 1.20967C14.9005 0.468178 13.5787 -0.000137329 13.2866 -0.000137329C12.9666 -0.000137329 12.3266 0.286057 11.0883 0.97551ZM16.5144 3.64229L19.0884 4.696L21.6066 4.60493C24.0553 4.52688 24.2362 4.53989 24.8345 4.91714C24.9597 4.99519 24.7232 5.56758 23.8745 7.20667C22.7893 9.31408 22.6362 9.78239 22.831 10.3548C22.9006 10.5759 22.8588 10.654 22.5945 10.719C22.1075 10.8231 21.7597 11.3955 21.8432 11.9028C21.8849 12.1239 22.6362 13.3338 23.5127 14.5956C24.751 16.3648 25.1962 16.8981 25.5301 17.0282C25.7806 17.1323 25.9754 17.2233 25.9754 17.2364C25.9754 17.2624 25.8223 17.8348 25.6275 18.4982C25.238 19.8511 25.1962 20.5015 25.4745 20.8528C25.7528 21.191 41.4746 27.4482 42.0451 27.4482C42.6433 27.4482 42.9494 27.1099 43.659 25.653C43.979 25.0025 44.2851 24.4562 44.3407 24.4562C44.3964 24.4562 45.0086 24.8985 45.7181 25.4318C46.5251 26.0432 47.1651 26.4335 47.4712 26.4855C47.7355 26.5245 48.6955 26.5506 49.6138 26.5245C51.7843 26.4595 51.8121 26.4335 52.0625 24.6903L52.146 24.0789L54.0521 22.9472C55.0956 22.3227 56.1808 21.6203 56.4452 21.3861C56.9182 20.9829 56.9878 20.9698 58.393 20.9048L59.8678 20.8398L60.6608 21.9715C61.7322 23.5065 61.7322 23.5195 59.5339 24.209C58.56 24.5212 57.6278 24.8985 57.4608 25.0546C57.2799 25.2237 57.1269 25.5879 57.0713 25.9652C57.0156 26.3164 56.793 26.8498 56.5843 27.162C56.3756 27.4612 56.153 27.9815 56.1112 28.3328C56.0556 28.671 55.9443 29.3084 55.8608 29.7507L55.7217 30.5702L54.9843 30.4922C54.2886 30.4141 54.2051 30.4272 53.8156 30.7914C53.4956 31.0906 53.3843 31.3378 53.3147 31.9492C53.259 32.3654 53.1756 32.7817 53.1199 32.8598C53.0782 32.9378 52.8556 32.7687 52.5912 32.4435L52.1599 31.8971L52.8417 30.9475C53.5791 29.8938 53.6904 29.3734 53.2869 28.8921C53.0086 28.5669 52.3964 28.4238 50.8103 28.2807C49.8225 28.2027 49.5999 28.1376 48.8903 27.6823C47.5268 26.8107 47.2625 26.7457 46.3303 27.0449C45.0503 27.4612 42.6711 28.4238 42.379 28.658C41.892 29.0612 41.9337 29.4125 42.7964 32.4175C43.2694 34.0175 43.6451 35.3704 43.6451 35.4225C43.6451 35.4745 43.3946 35.5135 43.0746 35.5135C42.7685 35.5135 42.379 35.5786 42.212 35.6696C41.6972 35.9168 39.6102 37.4779 39.485 37.699C39.4155 37.8291 39.3181 38.2714 39.2624 38.7007L39.165 39.4812L37.2311 40.4568C36.1598 40.9902 35.172 41.5496 35.0328 41.6927C34.8798 41.8358 34.6015 42.3301 34.3928 42.7984C33.9337 43.8521 32.8624 44.9188 31.8606 45.3351C31.2763 45.5823 30.9841 45.8294 30.4276 46.5449C29.8015 47.3514 29.6623 47.4555 29.1615 47.5206C28.6189 47.5856 27.3389 48.223 26.8102 48.6783C26.5597 48.8995 25.1406 52.672 25.1406 53.1273C25.1406 53.2704 25.2797 53.7777 25.4467 54.246L25.7388 55.1176L25.2797 57.5372L24.8206 59.9568L23.5127 61.4268C22.7893 62.2334 22.0797 63.1049 21.9405 63.3651C21.704 63.7814 21.1614 64.1066 20.9945 63.9375C20.9527 63.9115 18.9631 58.9162 16.5562 52.8541L12.1735 41.8228L12.3961 40.6129L12.6187 39.4031L12.104 38.2714C11.6587 37.2697 11.5892 37.0095 11.5892 36.0079C11.5753 35.0062 11.5335 34.8501 11.2413 34.5509C10.8518 34.1606 10.2118 34.1086 9.73872 34.4078C9.57176 34.5119 8.91784 35.2274 8.29175 36.0079C7.66566 36.7754 7.10913 37.4518 7.05348 37.5039C6.99783 37.5689 6.58043 37.4388 6.13521 37.2307C5.50912 36.9315 5.23086 36.6973 4.98042 36.2811C4.66042 35.7477 4.66042 35.7087 4.89694 35.5786C5.46738 35.2794 5.80129 34.8631 5.80129 34.4729C5.80129 33.8875 5.5926 33.6013 4.93868 33.2891L4.35433 33.0159L4.77172 32.8468C4.99433 32.7687 5.60651 32.5606 6.1213 32.4045C6.65 32.2354 7.23435 31.9752 7.44305 31.8061C7.80479 31.5069 7.8187 31.4678 7.79088 30.206L7.77696 28.9181L6.84478 27.175C6.32999 26.2123 5.81521 25.3278 5.68999 25.1977C5.49521 24.9895 5.49521 24.9115 5.7039 24.274L5.94043 23.5716L6.78913 23.8187C7.74914 24.1049 8.41697 24.131 8.73697 23.8968C8.84828 23.8057 10.0587 22.5959 11.4222 21.204C13.8153 18.7584 14.2883 18.147 14.2883 17.5486C14.2883 17.3925 14.9144 16.2087 15.6796 14.9208C16.4727 13.5809 17.0709 12.4101 17.0709 12.202C17.0709 11.8508 16.737 11.4475 14.6918 9.34009L13.6344 8.26037L13.5509 6.17898L13.4535 4.1106L12.8692 3.55123C12.5492 3.25203 12.3126 2.97885 12.3544 2.95283C12.8831 2.57558 13.3979 2.38045 13.6483 2.47151C13.8153 2.53655 15.0953 3.0569 16.5144 3.64229Z" fill="#405BAE"/>
<path d="M24.254 43.3337C23.772 43.4059 23.3632 43.6654 23.1139 44.0555C23.0291 44.1891 22.9601 44.3562 22.9227 44.5209C22.8928 44.6514 22.8853 44.8954 22.9069 45.043C22.9842 45.583 23.3432 46.2038 23.9457 46.8409C24.0745 46.9769 24.3753 47.2597 24.4152 47.283C24.4551 47.3056 24.5249 47.3056 24.5648 47.283C24.6047 47.2597 24.9055 46.9769 25.0343 46.8409C25.6376 46.203 25.9958 45.583 26.073 45.043C26.0946 44.8954 26.0872 44.6514 26.0572 44.5209C25.9675 44.1262 25.724 43.7874 25.3708 43.5668C25.2096 43.465 24.9927 43.3818 24.7933 43.3438C24.6753 43.3212 24.3712 43.3158 24.254 43.3337ZM24.6587 44.0057C24.8365 44.0392 24.9711 44.106 25.1016 44.2264C25.2271 44.3414 25.3002 44.4572 25.3442 44.6102C25.3634 44.6763 25.3659 44.6996 25.3659 44.813C25.3659 44.9265 25.3634 44.9498 25.3442 45.0158C25.3002 45.1689 25.2271 45.2846 25.1016 45.3996C24.8124 45.6654 24.3903 45.7128 24.0363 45.5177C23.9332 45.4618 23.7961 45.3336 23.7363 45.2373C23.5667 44.9684 23.5667 44.6553 23.7354 44.3903C23.7861 44.3111 23.8842 44.2093 23.9648 44.1526C24.1609 44.0151 24.4193 43.9599 24.6587 44.0057Z" fill="#405BAE"/>
<path d="M17.1134 37.4259C16.6314 37.4982 16.2225 37.7577 15.9732 38.1478C15.8885 38.2814 15.8195 38.4484 15.7821 38.6132C15.7522 38.7437 15.7447 38.9877 15.7663 39.1353C15.8436 39.6753 16.2026 40.2961 16.8051 40.9332C16.9339 41.0692 17.2347 41.352 17.2746 41.3753C17.3145 41.3978 17.3843 41.3978 17.4241 41.3753C17.464 41.352 17.7649 41.0692 17.8937 40.9332C18.497 40.2953 18.8551 39.6753 18.9324 39.1353C18.954 38.9877 18.9465 38.7437 18.9166 38.6132C18.8269 38.2185 18.5834 37.8797 18.2302 37.659C18.069 37.5573 17.8521 37.4741 17.6527 37.436C17.5347 37.4135 17.2305 37.4081 17.1134 37.4259ZM17.5181 38.098C17.6959 38.1314 17.8305 38.1983 17.961 38.3187C18.0865 38.4337 18.1596 38.5495 18.2036 38.7025C18.2227 38.7686 18.2252 38.7919 18.2252 38.9053C18.2252 39.0187 18.2227 39.0421 18.2036 39.1081C18.1596 39.2612 18.0865 39.3769 17.961 39.4919C17.6718 39.7576 17.2496 39.805 16.8956 39.61C16.7926 39.5541 16.6555 39.4259 16.5956 39.3295C16.4261 39.0607 16.4261 38.7476 16.5948 38.4826C16.6455 38.4034 16.7436 38.3016 16.8242 38.2449C17.0203 38.1074 17.2787 38.0522 17.5181 38.098Z" fill="#405BAE"/>
<path d="M10.1859 25.6104C9.71631 25.6808 9.31794 25.9336 9.07503 26.3137C8.99244 26.4439 8.92523 26.6067 8.8888 26.7672C8.85965 26.8943 8.85236 27.1321 8.87341 27.2759C8.94871 27.8021 9.2985 28.4069 9.88554 29.0277C10.011 29.1602 10.3042 29.4358 10.343 29.4585C10.3819 29.4805 10.4499 29.4805 10.4888 29.4585C10.5276 29.4358 10.8207 29.1602 10.9462 29.0277C11.5341 28.4062 11.8831 27.8021 11.9584 27.2759C11.9794 27.1321 11.9721 26.8943 11.943 26.7672C11.8555 26.3826 11.6183 26.0525 11.2742 25.8375C11.1171 25.7383 10.9058 25.6573 10.7114 25.6202C10.5965 25.5982 10.3001 25.5929 10.1859 25.6104ZM10.5803 26.2652C10.7535 26.2978 10.8847 26.3629 11.0118 26.4802C11.1341 26.5923 11.2053 26.7051 11.2483 26.8542C11.2669 26.9186 11.2693 26.9413 11.2693 27.0518C11.2693 27.1623 11.2669 27.185 11.2483 27.2494C11.2053 27.3985 11.1341 27.5113 11.0118 27.6234C10.7301 27.8823 10.3187 27.9285 9.9738 27.7385C9.87339 27.684 9.73979 27.559 9.68149 27.4652C9.51631 27.2032 9.51631 26.8981 9.68068 26.64C9.73008 26.5627 9.82562 26.4636 9.90416 26.4083C10.0953 26.2743 10.3471 26.2206 10.5803 26.2652Z" fill="#405BAE"/>
<path d="M20.0316 15.7642C19.562 15.8346 19.1636 16.0874 18.9207 16.4675C18.8381 16.5977 18.7709 16.7605 18.7345 16.921C18.7054 17.0481 18.6981 17.2859 18.7191 17.4297C18.7944 17.9559 19.1442 18.5608 19.7312 19.1815C19.8567 19.314 20.1499 19.5896 20.1887 19.6123C20.2276 19.6343 20.2956 19.6343 20.3345 19.6123C20.3733 19.5896 20.6664 19.314 20.7919 19.1815C21.3798 18.56 21.7288 17.9559 21.8041 17.4297C21.8251 17.2859 21.8178 17.0481 21.7887 16.921C21.7012 16.5364 21.464 16.2063 21.1199 15.9913C20.9628 15.8921 20.7515 15.8111 20.5571 15.774C20.4422 15.7521 20.1458 15.7468 20.0316 15.7642ZM20.426 16.419C20.5992 16.4516 20.7304 16.5167 20.8575 16.634C20.9798 16.7461 21.0511 16.8589 21.094 17.008C21.1126 17.0724 21.115 17.0951 21.115 17.2056C21.115 17.3161 21.1126 17.3389 21.094 17.4032C21.0511 17.5523 20.9798 17.6652 20.8575 17.7772C20.5758 18.0361 20.1644 18.0823 19.8195 17.8923C19.7191 17.8378 19.5855 17.7128 19.5272 17.619C19.362 17.357 19.362 17.0519 19.5264 16.7938C19.5758 16.7166 19.6713 16.6174 19.7499 16.5621C19.941 16.4281 20.1928 16.3744 20.426 16.419Z" fill="#405BAE"/>
<path d="M15.6085 33.9195C15.3111 33.964 15.0587 34.1242 14.9049 34.3649C14.8526 34.4474 14.81 34.5505 14.7869 34.6521C14.7685 34.7327 14.7639 34.8832 14.7772 34.9744C14.8249 35.3076 15.0464 35.6907 15.4182 36.0839C15.4977 36.1678 15.6834 36.3424 15.708 36.3568C15.7326 36.3707 15.7757 36.3707 15.8003 36.3568C15.8249 36.3424 16.0106 36.1678 16.0901 36.0839C16.4624 35.6903 16.6834 35.3076 16.7311 34.9744C16.7444 34.8832 16.7398 34.7327 16.7214 34.6521C16.666 34.4085 16.5157 34.1995 16.2978 34.0633C16.1983 34.0005 16.0644 33.9492 15.9413 33.9257C15.8685 33.9118 15.6808 33.9084 15.6085 33.9195ZM15.8583 34.3342C15.968 34.3548 16.0511 34.3961 16.1316 34.4704C16.209 34.5414 16.2542 34.6128 16.2813 34.7073C16.2931 34.748 16.2947 34.7624 16.2947 34.8324C16.2947 34.9024 16.2931 34.9168 16.2813 34.9576C16.2542 35.052 16.209 35.1235 16.1316 35.1944C15.9531 35.3584 15.6926 35.3877 15.4741 35.2673C15.4105 35.2328 15.3259 35.1537 15.289 35.0942C15.1844 34.9283 15.1844 34.7351 15.2885 34.5716C15.3198 34.5227 15.3803 34.4598 15.43 34.4248C15.5511 34.34 15.7106 34.3059 15.8583 34.3342Z" fill="#405BAE"/>
<path d="M15.6085 30.5291C15.3111 30.5737 15.0587 30.7338 14.9049 30.9745C14.8526 31.057 14.81 31.1601 14.7869 31.2617C14.7685 31.3423 14.7639 31.4929 14.7772 31.584C14.8249 31.9172 15.0464 32.3003 15.4182 32.6935C15.4977 32.7775 15.6834 32.952 15.708 32.9664C15.7326 32.9803 15.7757 32.9803 15.8003 32.9664C15.8249 32.952 16.0106 32.7775 16.0901 32.6935C16.4624 32.2999 16.6834 31.9172 16.7311 31.584C16.7444 31.4929 16.7398 31.3423 16.7214 31.2617C16.666 31.0182 16.5157 30.8091 16.2978 30.6729C16.1983 30.6101 16.0644 30.5588 15.9413 30.5353C15.8685 30.5214 15.6808 30.518 15.6085 30.5291ZM15.8583 30.9438C15.968 30.9645 16.0511 31.0057 16.1316 31.08C16.209 31.151 16.2542 31.2224 16.2813 31.3169C16.2931 31.3576 16.2947 31.372 16.2947 31.442C16.2947 31.512 16.2931 31.5264 16.2813 31.5672C16.2542 31.6617 16.209 31.7331 16.1316 31.8041C15.9531 31.9681 15.6926 31.9973 15.4741 31.8769C15.4105 31.8424 15.3259 31.7633 15.289 31.7038C15.1844 31.5379 15.1844 31.3447 15.2885 31.1812C15.3198 31.1323 15.3803 31.0695 15.43 31.0345C15.5511 30.9496 15.7106 30.9155 15.8583 30.9438Z" fill="#405BAE"/>
<path d="M18.5616 32.4983C18.2642 32.5429 18.0119 32.7031 17.858 32.9438C17.8057 33.0262 17.7631 33.1293 17.7401 33.231C17.7216 33.3115 17.717 33.4621 17.7303 33.5532C17.778 33.8865 17.9996 34.2696 18.3714 34.6628C18.4509 34.7467 18.6365 34.9212 18.6611 34.9356C18.6857 34.9495 18.7288 34.9495 18.7534 34.9356C18.778 34.9212 18.9637 34.7467 19.0432 34.6628C19.4155 34.2691 19.6365 33.8865 19.6842 33.5532C19.6976 33.4621 19.693 33.3115 19.6745 33.231C19.6191 32.9874 19.4688 32.7783 19.2509 32.6422C19.1514 32.5793 19.0175 32.528 18.8945 32.5045C18.8216 32.4906 18.6339 32.4873 18.5616 32.4983ZM18.8114 32.9131C18.9211 32.9337 19.0042 32.9749 19.0847 33.0493C19.1622 33.1202 19.2073 33.1917 19.2345 33.2861C19.2463 33.3269 19.2478 33.3413 19.2478 33.4113C19.2478 33.4813 19.2463 33.4957 19.2345 33.5364C19.2073 33.6309 19.1622 33.7023 19.0847 33.7733C18.9063 33.9373 18.6457 33.9665 18.4273 33.8462C18.3637 33.8117 18.279 33.7325 18.2421 33.6731C18.1375 33.5072 18.1375 33.3139 18.2416 33.1504C18.2729 33.1015 18.3334 33.0387 18.3832 33.0037C18.5042 32.9188 18.6637 32.8848 18.8114 32.9131Z" fill="#405BAE"/>
<path d="M25.4542 37.4214C25.1568 37.466 24.9044 37.6262 24.7506 37.8669C24.6983 37.9493 24.6557 38.0524 24.6326 38.1541C24.6142 38.2346 24.6096 38.3852 24.6229 38.4763C24.6706 38.8096 24.8921 39.1927 25.2639 39.5859C25.3434 39.6698 25.5291 39.8443 25.5537 39.8587C25.5783 39.8726 25.6214 39.8726 25.646 39.8587C25.6706 39.8443 25.8563 39.6698 25.9358 39.5859C26.3081 39.1922 26.5291 38.8096 26.5768 38.4763C26.5901 38.3852 26.5855 38.2346 26.5671 38.1541C26.5117 37.9105 26.3614 37.7014 26.1435 37.5653C26.044 37.5024 25.9101 37.4511 25.787 37.4276C25.7142 37.4137 25.5265 37.4104 25.4542 37.4214ZM25.704 37.8362C25.8137 37.8568 25.8968 37.898 25.9773 37.9724C26.0547 38.0433 26.0999 38.1148 26.1271 38.2092C26.1388 38.25 26.1404 38.2644 26.1404 38.3344C26.1404 38.4044 26.1388 38.4188 26.1271 38.4595C26.0999 38.554 26.0547 38.6254 25.9773 38.6964C25.7988 38.8604 25.5383 38.8896 25.3198 38.7693C25.2562 38.7348 25.1716 38.6556 25.1347 38.5962C25.0301 38.4303 25.0301 38.237 25.1342 38.0735C25.1655 38.0246 25.226 37.9618 25.2757 37.9268C25.3968 37.8419 25.5563 37.8079 25.704 37.8362Z" fill="#405BAE"/>
<path d="M31.3624 42.3445C31.065 42.3891 30.8126 42.5492 30.6588 42.79C30.6065 42.8724 30.5639 42.9755 30.5408 43.0772C30.5224 43.1577 30.5178 43.3083 30.5311 43.3994C30.5788 43.7327 30.8003 44.1158 31.1721 44.509C31.2516 44.5929 31.4373 44.7674 31.4619 44.7818C31.4865 44.7957 31.5296 44.7957 31.5542 44.7818C31.5788 44.7674 31.7645 44.5929 31.844 44.509C32.2163 44.1153 32.4373 43.7327 32.485 43.3994C32.4983 43.3083 32.4937 43.1577 32.4753 43.0772C32.4199 42.8336 32.2696 42.6245 32.0517 42.4884C31.9522 42.4255 31.8183 42.3742 31.6952 42.3507C31.6224 42.3368 31.4347 42.3335 31.3624 42.3445ZM31.6122 42.7593C31.7219 42.7799 31.805 42.8211 31.8855 42.8954C31.9629 42.9664 32.0081 43.0379 32.0353 43.1323C32.047 43.1731 32.0486 43.1875 32.0486 43.2575C32.0486 43.3275 32.047 43.3419 32.0353 43.3826C32.0081 43.4771 31.9629 43.5485 31.8855 43.6195C31.707 43.7835 31.4465 43.8127 31.228 43.6924C31.1644 43.6579 31.0798 43.5787 31.0429 43.5193C30.9383 43.3534 30.9383 43.1601 31.0424 42.9966C31.0737 42.9477 31.1342 42.8849 31.1839 42.8499C31.305 42.765 31.4645 42.731 31.6122 42.7593Z" fill="#405BAE"/>
<path d="M32.3468 39.3906C32.0493 39.4352 31.797 39.5954 31.6432 39.8361C31.5909 39.9186 31.5483 40.0217 31.5252 40.1233C31.5067 40.2039 31.5021 40.3544 31.5155 40.4455C31.5632 40.7788 31.7847 41.1619 32.1565 41.5551C32.236 41.639 32.4217 41.8136 32.4463 41.8279C32.4709 41.8419 32.514 41.8419 32.5386 41.8279C32.5632 41.8136 32.7488 41.639 32.8283 41.5551C33.2007 41.1614 33.4217 40.7788 33.4694 40.4455C33.4827 40.3544 33.4781 40.2039 33.4596 40.1233C33.4043 39.8797 33.254 39.6707 33.036 39.5345C32.9365 39.4717 32.8027 39.4204 32.6796 39.3969C32.6068 39.383 32.4191 39.3796 32.3468 39.3906ZM32.5965 39.8054C32.7063 39.826 32.7894 39.8673 32.8699 39.9416C32.9473 40.0126 32.9924 40.084 33.0196 40.1785C33.0314 40.2192 33.033 40.2336 33.033 40.3036C33.033 40.3736 33.0314 40.388 33.0196 40.4288C32.9924 40.5232 32.9473 40.5947 32.8699 40.6656C32.6914 40.8296 32.4309 40.8589 32.2124 40.7385C32.1488 40.704 32.0642 40.6249 32.0273 40.5654C31.9227 40.3995 31.9227 40.2063 32.0268 40.0428C32.0581 39.9939 32.1186 39.931 32.1683 39.896C32.2893 39.8112 32.4488 39.7771 32.5965 39.8054Z" fill="#405BAE"/>
<path d="M29.3937 39.3906C29.0962 39.4352 28.8439 39.5954 28.69 39.8361C28.6377 39.9186 28.5952 40.0217 28.5721 40.1233C28.5536 40.2039 28.549 40.3544 28.5623 40.4455C28.61 40.7788 28.8316 41.1619 29.2034 41.5551C29.2829 41.639 29.4685 41.8136 29.4931 41.8279C29.5178 41.8419 29.5608 41.8419 29.5855 41.8279C29.6101 41.8136 29.7957 41.639 29.8752 41.5551C30.2475 41.1614 30.4686 40.7788 30.5163 40.4455C30.5296 40.3544 30.525 40.2039 30.5065 40.1233C30.4511 39.8797 30.3009 39.6707 30.0829 39.5345C29.9834 39.4717 29.8496 39.4204 29.7265 39.3969C29.6537 39.383 29.466 39.3796 29.3937 39.3906ZM29.6434 39.8054C29.7532 39.826 29.8362 39.8673 29.9168 39.9416C29.9942 40.0126 30.0393 40.084 30.0665 40.1785C30.0783 40.2192 30.0798 40.2336 30.0798 40.3036C30.0798 40.3736 30.0783 40.388 30.0665 40.4288C30.0393 40.5232 29.9942 40.5947 29.9168 40.6656C29.7383 40.8296 29.4778 40.8589 29.2593 40.7385C29.1957 40.704 29.1111 40.6249 29.0742 40.5654C28.9695 40.3995 28.9695 40.2063 29.0736 40.0428C29.1049 39.9939 29.1654 39.931 29.2152 39.896C29.3362 39.8112 29.4957 39.7771 29.6434 39.8054Z" fill="#405BAE"/>
<path d="M21.5167 23.6367C21.2193 23.6813 20.9669 23.8415 20.8131 24.0822C20.7608 24.1647 20.7182 24.2678 20.6951 24.3694C20.6767 24.45 20.6721 24.6005 20.6854 24.6916C20.7331 25.0249 20.9546 25.408 21.3264 25.8012C21.4059 25.8851 21.5916 26.0597 21.6162 26.074C21.6408 26.0879 21.6839 26.0879 21.7085 26.074C21.7331 26.0597 21.9188 25.8851 21.9983 25.8012C22.3706 25.4075 22.5916 25.0249 22.6393 24.6916C22.6526 24.6005 22.648 24.45 22.6296 24.3694C22.5742 24.1258 22.4239 23.9168 22.206 23.7806C22.1065 23.7178 21.9726 23.6665 21.8495 23.643C21.7767 23.6291 21.589 23.6257 21.5167 23.6367ZM21.7665 24.0515C21.8762 24.0721 21.9593 24.1134 22.0398 24.1877C22.1172 24.2586 22.1624 24.3301 22.1896 24.4246C22.2013 24.4653 22.2029 24.4797 22.2029 24.5497C22.2029 24.6197 22.2013 24.6341 22.1896 24.6749C22.1624 24.7693 22.1172 24.8408 22.0398 24.9117C21.8613 25.0757 21.6008 25.105 21.3823 24.9846C21.3187 24.9501 21.2341 24.871 21.1972 24.8115C21.0926 24.6456 21.0926 24.4524 21.1967 24.2889C21.228 24.2399 21.2885 24.1771 21.3382 24.1421C21.4593 24.0573 21.6188 24.0232 21.7665 24.0515Z" fill="#405BAE"/>
<path d="M18.5616 22.6521C18.2642 22.6967 18.0119 22.8569 17.858 23.0976C17.8057 23.18 17.7631 23.2831 17.7401 23.3848C17.7216 23.4654 17.717 23.6159 17.7303 23.707C17.778 24.0403 17.9996 24.4234 18.3714 24.8166C18.4509 24.9005 18.6365 25.075 18.6611 25.0894C18.6857 25.1033 18.7288 25.1033 18.7534 25.0894C18.778 25.075 18.9637 24.9005 19.0432 24.8166C19.4155 24.4229 19.6365 24.0403 19.6842 23.707C19.6976 23.6159 19.693 23.4654 19.6745 23.3848C19.6191 23.1412 19.4688 22.9321 19.2509 22.796C19.1514 22.7332 19.0175 22.6818 18.8945 22.6584C18.8216 22.6444 18.6339 22.6411 18.5616 22.6521ZM18.8114 23.0669C18.9211 23.0875 19.0042 23.1287 19.0847 23.2031C19.1622 23.274 19.2073 23.3455 19.2345 23.4399C19.2463 23.4807 19.2478 23.4951 19.2478 23.5651C19.2478 23.6351 19.2463 23.6495 19.2345 23.6902C19.2073 23.7847 19.1622 23.8561 19.0847 23.9271C18.9063 24.0911 18.6457 24.1204 18.4273 24C18.3637 23.9655 18.279 23.8864 18.2421 23.8269C18.1375 23.661 18.1375 23.4677 18.2416 23.3042C18.2729 23.2553 18.3334 23.1925 18.3832 23.1575C18.5042 23.0726 18.6637 23.0386 18.8114 23.0669Z" fill="#405BAE"/>
<path d="M14.6241 17.7291C14.3267 17.7737 14.0744 17.9339 13.9205 18.1746C13.8682 18.2571 13.8256 18.3602 13.8026 18.4618C13.7841 18.5424 13.7795 18.6929 13.7928 18.784C13.8405 19.1173 14.0621 19.5004 14.4339 19.8936C14.5134 19.9775 14.699 20.1521 14.7236 20.1665C14.7482 20.1804 14.7913 20.1804 14.8159 20.1665C14.8405 20.1521 15.0262 19.9775 15.1057 19.8936C15.478 19.4999 15.699 19.1173 15.7467 18.784C15.7601 18.6929 15.7555 18.5424 15.737 18.4618C15.6816 18.2182 15.5313 18.0092 15.3134 17.873C15.2139 17.8102 15.08 17.7589 14.957 17.7354C14.8841 17.7215 14.6964 17.7181 14.6241 17.7291ZM14.8739 18.1439C14.9836 18.1645 15.0667 18.2058 15.1472 18.2801C15.2247 18.3511 15.2698 18.4225 15.297 18.517C15.3088 18.5577 15.3103 18.5721 15.3103 18.6421C15.3103 18.7121 15.3088 18.7265 15.297 18.7673C15.2698 18.8617 15.2247 18.9332 15.1472 19.0041C14.9688 19.1681 14.7082 19.1974 14.4898 19.077C14.4262 19.0425 14.3415 18.9634 14.3046 18.9039C14.2 18.738 14.2 18.5448 14.3041 18.3813C14.3354 18.3324 14.3959 18.2695 14.4457 18.2345C14.5667 18.1497 14.7262 18.1156 14.8739 18.1439Z" fill="#405BAE"/>
<path d="M13.6397 40.3757C13.3423 40.4203 13.09 40.5805 12.9361 40.8212C12.8838 40.9037 12.8413 41.0068 12.8182 41.1084C12.7997 41.189 12.7951 41.3395 12.8084 41.4307C12.8561 41.7639 13.0777 42.147 13.4495 42.5402C13.529 42.6241 13.7146 42.7987 13.7392 42.8131C13.7639 42.827 13.8069 42.827 13.8316 42.8131C13.8562 42.7987 14.0418 42.6241 14.1213 42.5402C14.4936 42.1465 14.7147 41.7639 14.7624 41.4307C14.7757 41.3395 14.7711 41.189 14.7526 41.1084C14.6972 40.8648 14.547 40.6558 14.329 40.5196C14.2295 40.4568 14.0957 40.4055 13.9726 40.382C13.8998 40.3681 13.7121 40.3647 13.6397 40.3757ZM13.8895 40.7905C13.9993 40.8111 14.0823 40.8524 14.1628 40.9267C14.2403 40.9977 14.2854 41.0691 14.3126 41.1636C14.3244 41.2043 14.3259 41.2187 14.3259 41.2887C14.3259 41.3587 14.3244 41.3731 14.3126 41.4139C14.2854 41.5083 14.2403 41.5798 14.1628 41.6507C13.9844 41.8147 13.7239 41.844 13.5054 41.7236C13.4418 41.6891 13.3572 41.61 13.3203 41.5505C13.2156 41.3846 13.2156 41.1914 13.3197 41.0279C13.351 40.979 13.4115 40.9161 13.4613 40.8811C13.5823 40.7963 13.7418 40.7622 13.8895 40.7905Z" fill="#405BAE"/>
<path d="M34.3155 26.5911C34.0181 26.6357 33.7658 26.7958 33.6119 27.0365C33.5596 27.119 33.517 27.2221 33.494 27.3238C33.4755 27.4043 33.4709 27.5549 33.4842 27.646C33.5319 27.9792 33.7535 28.3624 34.1253 28.7556C34.2048 28.8395 34.3904 29.014 34.415 29.0284C34.4396 29.0423 34.4827 29.0423 34.5073 29.0284C34.5319 29.014 34.7176 28.8395 34.7971 28.7556C35.1694 28.3619 35.3904 27.9792 35.4381 27.646C35.4515 27.5549 35.4469 27.4043 35.4284 27.3238C35.373 27.0802 35.2227 26.8711 35.0048 26.7349C34.9053 26.6721 34.7714 26.6208 34.6484 26.5973C34.5755 26.5834 34.3878 26.5801 34.3155 26.5911ZM34.5653 27.0059C34.675 27.0265 34.7581 27.0677 34.8386 27.142C34.9161 27.213 34.9612 27.2844 34.9884 27.3789C35.0002 27.4197 35.0017 27.434 35.0017 27.5041C35.0017 27.5741 35.0002 27.5884 34.9884 27.6292C34.9612 27.7237 34.9161 27.7951 34.8386 27.8661C34.6602 28.0301 34.3996 28.0593 34.1812 27.939C34.1176 27.9044 34.033 27.8253 33.996 27.7659C33.8914 27.6 33.8914 27.4067 33.9955 27.2432C34.0268 27.1943 34.0873 27.1315 34.1371 27.0965C34.2581 27.0116 34.4176 26.9776 34.5653 27.0059Z" fill="#405BAE"/>
<path d="M15.6085 42.3445C15.3111 42.3891 15.0587 42.5492 14.9049 42.79C14.8526 42.8724 14.81 42.9755 14.7869 43.0772C14.7685 43.1577 14.7639 43.3083 14.7772 43.3994C14.8249 43.7327 15.0464 44.1158 15.4182 44.509C15.4977 44.5929 15.6834 44.7674 15.708 44.7818C15.7326 44.7957 15.7757 44.7957 15.8003 44.7818C15.8249 44.7674 16.0106 44.5929 16.0901 44.509C16.4624 44.1153 16.6834 43.7327 16.7311 43.3994C16.7444 43.3083 16.7398 43.1577 16.7214 43.0772C16.666 42.8336 16.5157 42.6245 16.2978 42.4884C16.1983 42.4255 16.0644 42.3742 15.9413 42.3507C15.8685 42.3368 15.6808 42.3335 15.6085 42.3445ZM15.8583 42.7593C15.968 42.7799 16.0511 42.8211 16.1316 42.8954C16.209 42.9664 16.2542 43.0379 16.2813 43.1323C16.2931 43.1731 16.2947 43.1875 16.2947 43.2575C16.2947 43.3275 16.2931 43.3419 16.2813 43.3826C16.2542 43.4771 16.209 43.5485 16.1316 43.6195C15.9531 43.7835 15.6926 43.8127 15.4741 43.6924C15.4105 43.6579 15.3259 43.5787 15.289 43.5193C15.1844 43.3534 15.1844 43.1601 15.2885 42.9966C15.3198 42.9477 15.3803 42.8849 15.43 42.8499C15.5511 42.765 15.7106 42.731 15.8583 42.7593Z" fill="#405BAE"/>
<path d="M18.5616 46.283C18.2642 46.3276 18.0119 46.4877 17.858 46.7284C17.8057 46.8109 17.7631 46.914 17.7401 47.0157C17.7216 47.0962 17.717 47.2468 17.7303 47.3379C17.778 47.6711 17.9996 48.0543 18.3714 48.4474C18.4509 48.5314 18.6365 48.7059 18.6611 48.7203C18.6857 48.7342 18.7288 48.7342 18.7534 48.7203C18.778 48.7059 18.9637 48.5314 19.0432 48.4474C19.4155 48.0538 19.6365 47.6711 19.6842 47.3379C19.6976 47.2468 19.693 47.0962 19.6745 47.0157C19.6191 46.7721 19.4688 46.563 19.2509 46.4268C19.1514 46.364 19.0175 46.3127 18.8945 46.2892C18.8216 46.2753 18.6339 46.2719 18.5616 46.283ZM18.8114 46.6977C18.9211 46.7184 19.0042 46.7596 19.0847 46.8339C19.1622 46.9049 19.2073 46.9763 19.2345 47.0708C19.2463 47.1116 19.2478 47.1259 19.2478 47.1959C19.2478 47.266 19.2463 47.2803 19.2345 47.3211C19.2073 47.4156 19.1622 47.487 19.0847 47.558C18.9063 47.722 18.6457 47.7512 18.4273 47.6309C18.3637 47.5963 18.279 47.5172 18.2421 47.4578C18.1375 47.2918 18.1375 47.0986 18.2416 46.9351C18.2729 46.8862 18.3334 46.8234 18.3832 46.7884C18.5042 46.7035 18.6637 46.6695 18.8114 46.6977Z" fill="#405BAE"/>
<path d="M21.5167 51.2061C21.2193 51.2507 20.9669 51.4108 20.8131 51.6515C20.7608 51.734 20.7182 51.8371 20.6951 51.9388C20.6767 52.0193 20.6721 52.1699 20.6854 52.261C20.7331 52.5942 20.9546 52.9774 21.3264 53.3705C21.4059 53.4545 21.5916 53.629 21.6162 53.6434C21.6408 53.6573 21.6839 53.6573 21.7085 53.6434C21.7331 53.629 21.9188 53.4545 21.9983 53.3705C22.3706 52.9769 22.5916 52.5942 22.6393 52.261C22.6526 52.1699 22.648 52.0193 22.6296 51.9388C22.5742 51.6952 22.4239 51.4861 22.206 51.3499C22.1065 51.2871 21.9726 51.2358 21.8495 51.2123C21.7767 51.1984 21.589 51.195 21.5167 51.2061ZM21.7665 51.6208C21.8762 51.6415 21.9593 51.6827 22.0398 51.757C22.1172 51.828 22.1624 51.8994 22.1896 51.9939C22.2013 52.0347 22.2029 52.049 22.2029 52.119C22.2029 52.1891 22.2013 52.2034 22.1896 52.2442C22.1624 52.3387 22.1172 52.4101 22.0398 52.4811C21.8613 52.6451 21.6008 52.6743 21.3823 52.554C21.3187 52.5194 21.2341 52.4403 21.1972 52.3809C21.0926 52.2149 21.0926 52.0217 21.1967 51.8582C21.228 51.8093 21.2885 51.7465 21.3382 51.7115C21.4593 51.6266 21.6188 51.5926 21.7665 51.6208Z" fill="#405BAE"/>
<path d="M19.546 50.2215C19.2486 50.266 18.9962 50.4262 18.8424 50.6669C18.7901 50.7494 18.7475 50.8525 18.7244 50.9541C18.706 51.0347 18.7014 51.1853 18.7147 51.2764C18.7624 51.6096 18.9839 51.9927 19.3557 52.3859C19.4352 52.4698 19.6209 52.6444 19.6455 52.6588C19.6701 52.6727 19.7132 52.6727 19.7378 52.6588C19.7624 52.6444 19.9481 52.4698 20.0276 52.3859C20.3999 51.9923 20.6209 51.6096 20.6686 51.2764C20.6819 51.1853 20.6773 51.0347 20.6589 50.9541C20.6035 50.7105 20.4532 50.5015 20.2353 50.3653C20.1358 50.3025 20.0019 50.2512 19.8788 50.2277C19.806 50.2138 19.6183 50.2104 19.546 50.2215ZM19.7958 50.6362C19.9055 50.6568 19.9886 50.6981 20.0691 50.7724C20.1465 50.8434 20.1917 50.9148 20.2188 51.0093C20.2306 51.05 20.2322 51.0644 20.2322 51.1344C20.2322 51.2044 20.2306 51.2188 20.2188 51.2596C20.1917 51.354 20.1465 51.4255 20.0691 51.4964C19.8906 51.6604 19.6301 51.6897 19.4116 51.5693C19.348 51.5348 19.2634 51.4557 19.2265 51.3962C19.1219 51.2303 19.1219 51.0371 19.226 50.8736C19.2573 50.8247 19.3178 50.7619 19.3675 50.7268C19.4886 50.642 19.6481 50.6079 19.7958 50.6362Z" fill="#405BAE"/>
<path d="M21.5167 57.1143C21.2193 57.1589 20.9669 57.319 20.8131 57.5597C20.7608 57.6422 20.7182 57.7453 20.6951 57.847C20.6767 57.9275 20.6721 58.0781 20.6854 58.1692C20.7331 58.5024 20.9546 58.8856 21.3264 59.2787C21.4059 59.3627 21.5916 59.5372 21.6162 59.5516C21.6408 59.5655 21.6839 59.5655 21.7085 59.5516C21.7331 59.5372 21.9188 59.3627 21.9983 59.2787C22.3706 58.8851 22.5916 58.5024 22.6393 58.1692C22.6526 58.0781 22.648 57.9275 22.6296 57.847C22.5742 57.6034 22.4239 57.3943 22.206 57.2581C22.1065 57.1953 21.9726 57.144 21.8495 57.1205C21.7767 57.1066 21.589 57.1032 21.5167 57.1143ZM21.7665 57.529C21.8762 57.5497 21.9593 57.5909 22.0398 57.6652C22.1172 57.7362 22.1624 57.8076 22.1896 57.9021C22.2013 57.9429 22.2029 57.9572 22.2029 58.0272C22.2029 58.0973 22.2013 58.1116 22.1896 58.1524C22.1624 58.2469 22.1172 58.3183 22.0398 58.3893C21.8613 58.5533 21.6008 58.5825 21.3823 58.4622C21.3187 58.4276 21.2341 58.3485 21.1972 58.2891C21.0926 58.1231 21.0926 57.9299 21.1967 57.7664C21.228 57.7175 21.2885 57.6547 21.3382 57.6197C21.4593 57.5348 21.6188 57.5008 21.7665 57.529Z" fill="#405BAE"/>
<path d="M23.4855 55.1445C23.188 55.1891 22.9357 55.3493 22.7818 55.59C22.7295 55.6725 22.687 55.7756 22.6639 55.8772C22.6454 55.9578 22.6408 56.1083 22.6541 56.1995C22.7018 56.5327 22.9234 56.9158 23.2952 57.309C23.3747 57.3929 23.5603 57.5675 23.5849 57.5819C23.6096 57.5958 23.6526 57.5958 23.6773 57.5819C23.7019 57.5675 23.8875 57.3929 23.967 57.309C24.3393 56.9153 24.5604 56.5327 24.6081 56.1995C24.6214 56.1083 24.6168 55.9578 24.5983 55.8772C24.5429 55.6336 24.3927 55.4246 24.1747 55.2884C24.0752 55.2256 23.9414 55.1743 23.8183 55.1508C23.7455 55.1369 23.5578 55.1335 23.4855 55.1445ZM23.7352 55.5593C23.845 55.5799 23.928 55.6212 24.0086 55.6955C24.086 55.7665 24.1311 55.8379 24.1583 55.9324C24.1701 55.9731 24.1716 55.9875 24.1716 56.0575C24.1716 56.1275 24.1701 56.1419 24.1583 56.1827C24.1311 56.2771 24.086 56.3486 24.0086 56.4195C23.8301 56.5835 23.5696 56.6128 23.3511 56.4924C23.2875 56.4579 23.2029 56.3788 23.166 56.3193C23.0613 56.1534 23.0613 55.9602 23.1654 55.7967C23.1967 55.7478 23.2572 55.6849 23.307 55.6499C23.428 55.5651 23.5875 55.531 23.7352 55.5593Z" fill="#405BAE"/>
<path d="M39.2394 33.4829C38.9419 33.5275 38.6896 33.6877 38.5357 33.9284C38.4834 34.0109 38.4409 34.114 38.4178 34.2156C38.3993 34.2962 38.3947 34.4467 38.408 34.5378C38.4557 34.8711 38.6773 35.2542 39.0491 35.6474C39.1286 35.7313 39.3142 35.9058 39.3389 35.9202C39.3635 35.9341 39.4065 35.9341 39.4312 35.9202C39.4558 35.9058 39.6414 35.7313 39.7209 35.6474C40.0932 35.2537 40.3143 34.8711 40.362 34.5378C40.3753 34.4467 40.3707 34.2962 40.3522 34.2156C40.2968 33.972 40.1466 33.763 39.9286 33.6268C39.8291 33.564 39.6953 33.5127 39.5722 33.4892C39.4994 33.4753 39.3117 33.4719 39.2394 33.4829ZM39.4891 33.8977C39.5989 33.9183 39.6819 33.9596 39.7625 34.0339C39.8399 34.1048 39.885 34.1763 39.9122 34.2707C39.924 34.3115 39.9255 34.3259 39.9255 34.3959C39.9255 34.4659 39.924 34.4803 39.9122 34.521C39.885 34.6155 39.8399 34.687 39.7625 34.7579C39.584 34.9219 39.3235 34.9512 39.105 34.8308C39.0414 34.7963 38.9568 34.7172 38.9199 34.6577C38.8152 34.4918 38.8152 34.2986 38.9193 34.135C38.9506 34.0861 39.0111 34.0233 39.0609 33.9883C39.1819 33.9035 39.3414 33.8694 39.4891 33.8977Z" fill="#405BAE"/>
<path d="M28.4073 27.5752C28.1099 27.6198 27.8576 27.78 27.7037 28.0207C27.6514 28.1031 27.6088 28.2062 27.5858 28.3079C27.5673 28.3884 27.5627 28.539 27.576 28.6301C27.6237 28.9634 27.8453 29.3465 28.2171 29.7397C28.2966 29.8236 28.4822 29.9981 28.5068 30.0125C28.5314 30.0264 28.5745 30.0264 28.5991 30.0125C28.6237 29.9981 28.8094 29.8236 28.8889 29.7397C29.2612 29.346 29.4822 28.9634 29.5299 28.6301C29.5433 28.539 29.5387 28.3884 29.5202 28.3079C29.4648 28.0643 29.3145 27.8552 29.0966 27.7191C28.9971 27.6562 28.8632 27.6049 28.7402 27.5814C28.6673 27.5675 28.4796 27.5642 28.4073 27.5752ZM28.6571 27.99C28.7668 28.0106 28.8499 28.0518 28.9304 28.1262C29.0079 28.1971 29.053 28.2686 29.0802 28.363C29.092 28.4038 29.0935 28.4182 29.0935 28.4882C29.0935 28.5582 29.092 28.5726 29.0802 28.6133C29.053 28.7078 29.0079 28.7792 28.9304 28.8502C28.752 29.0142 28.4914 29.0434 28.273 28.9231C28.2094 28.8886 28.1248 28.8095 28.0878 28.75C27.9832 28.5841 27.9832 28.3908 28.0873 28.2273C28.1186 28.1784 28.1791 28.1156 28.2289 28.0806C28.3499 27.9957 28.5094 27.9617 28.6571 27.99Z" fill="#405BAE"/>
<path d="M29.3937 34.468C29.0962 34.5126 28.8439 34.6728 28.69 34.9135C28.6377 34.996 28.5952 35.0991 28.5721 35.2007C28.5536 35.2813 28.549 35.4318 28.5623 35.5229C28.61 35.8562 28.8316 36.2393 29.2034 36.6325C29.2829 36.7164 29.4685 36.891 29.4931 36.9053C29.5178 36.9192 29.5608 36.9192 29.5855 36.9053C29.6101 36.891 29.7957 36.7164 29.8752 36.6325C30.2475 36.2388 30.4686 35.8562 30.5163 35.5229C30.5296 35.4318 30.525 35.2813 30.5065 35.2007C30.4511 34.9571 30.3009 34.7481 30.0829 34.6119C29.9834 34.5491 29.8496 34.4978 29.7265 34.4743C29.6537 34.4604 29.466 34.457 29.3937 34.468ZM29.6434 34.8828C29.7532 34.9034 29.8362 34.9447 29.9168 35.019C29.9942 35.0899 30.0393 35.1614 30.0665 35.2559C30.0783 35.2966 30.0798 35.311 30.0798 35.381C30.0798 35.451 30.0783 35.4654 30.0665 35.5062C30.0393 35.6006 29.9942 35.6721 29.9168 35.743C29.7383 35.907 29.4778 35.9363 29.2593 35.8159C29.1957 35.7814 29.1111 35.7023 29.0742 35.6428C28.9695 35.4769 28.9695 35.2837 29.0736 35.1202C29.1049 35.0712 29.1654 35.0084 29.2152 34.9734C29.3362 34.8886 29.4957 34.8545 29.6434 34.8828Z" fill="#405BAE"/>
</svg>
