<svg width="62" height="61" viewBox="0 0 62 61" fill="none" xmlns="http://www.w3.org/2000/svg">
<path d="M31.9798 16.7922C32.2332 17.3682 32.5037 17.9356 32.7833 18.4999C33.2948 19.5315 33.9051 20.5256 34.512 21.5141C34.5658 21.6018 34.6196 21.6894 34.6734 21.777M31.9798 16.7922C31.9621 16.7526 31.9266 16.6843 31.8812 16.5983L31.8727 16.6223L31.8524 16.6608C31.8458 16.6739 31.8396 16.6857 31.8338 16.6961C31.7972 16.7657 31.7604 16.8354 31.7234 16.905L31.9798 16.7922ZM31.9798 16.7922L31.7224 16.9069C31.5813 17.1732 31.4384 17.4393 31.294 17.7051M31.294 17.7051C31.2172 17.5379 31.1415 17.3698 31.067 17.2007C31.0665 17.1997 31.0607 17.1875 31.0454 17.1579C31.0283 17.1248 31.0067 17.0837 30.9795 17.0322L30.9691 17.0125C30.9182 16.9163 30.854 16.7948 30.7898 16.6679M31.294 17.7051C31.4862 18.1233 31.6851 18.5358 31.8873 18.9438L31.8874 18.9441C32.4201 20.0184 33.0538 21.0504 33.6565 22.0319C33.7115 22.1216 33.7663 22.2108 33.8207 22.2996L34.6734 21.777M31.294 17.7051C30.0942 19.9148 28.7943 22.1047 27.5493 24.2022C27.3296 24.5722 27.1117 24.9394 26.8963 25.3032C26.376 26.1824 25.7442 27.0876 25.1357 27.9594C24.7813 28.4671 24.4349 28.9635 24.1229 29.4368C23.2318 30.7888 22.5115 32.0996 22.1836 33.4941L22.1835 33.4943C21.7711 35.247 22.0636 37.1505 22.964 38.7731C22.964 38.7729 22.9639 38.7728 22.9638 38.7726L22.0898 39.2585M30.7898 16.6679C30.9135 16.9098 31.1464 16.9991 31.3162 17C31.4839 17.0009 31.7121 16.9167 31.8391 16.685C31.841 16.6815 31.8429 16.678 31.8447 16.6745L31.3175 16.3979L31.3172 16.3977L31.0257 16.2448L30.9655 16.2132L30.9612 16.2109L30.9592 16.2099M30.7898 16.6679C30.7894 16.6671 30.7889 16.6662 30.7885 16.6654C30.7889 16.6662 30.7894 16.6671 30.7898 16.6679ZM30.9592 16.2099H31.6787C31.5334 15.9304 31.1062 15.9297 30.9592 16.2099ZM30.9592 16.2099V16.2109C30.9586 16.2125 30.9578 16.2139 30.9569 16.2152C30.9561 16.2165 30.9552 16.2178 30.9547 16.2194C29.623 18.7493 28.128 21.2679 26.6907 23.6894C26.4708 24.06 26.2522 24.4282 26.0358 24.7939C25.5295 25.6492 24.9437 26.4875 24.3543 27.3308C23.0451 29.2042 21.7187 31.1021 21.2101 33.2652C20.7373 35.2747 21.076 37.4319 22.0898 39.2585M22.0898 39.2585C23.1047 41.0841 24.7788 42.5729 26.7529 43.4825M22.0898 39.2585L22.9641 38.7733C23.8666 40.3963 25.3721 41.7453 27.1714 42.5743M26.7529 43.4825C29.9636 44.9607 34.0108 44.8193 36.9941 42.9714M26.7529 43.4825L27.1711 42.5742C27.1712 42.5742 27.1713 42.5743 27.1714 42.5743M26.7529 43.4825L27.1714 42.5743M36.9941 42.9714C38.8433 41.8248 40.2389 40.0916 41.0606 38.1651M36.9941 42.9714L36.4672 42.1215C33.7893 43.78 30.0994 43.9221 27.1714 42.5743M36.9941 42.9714L36.4676 42.1213C38.1257 41.0929 39.3922 39.5278 40.1407 37.7729M41.0606 38.1651C41.805 36.4192 42.0914 34.4565 41.555 32.6447M41.0606 38.1651L40.1407 37.7729M41.0606 38.1651L40.1408 37.7728C40.1408 37.7728 40.1408 37.7728 40.1407 37.7729M41.555 32.6447C41.1238 31.19 40.1983 29.9179 39.2885 28.6673C39.2366 28.596 39.1848 28.5248 39.1331 28.4536C37.5567 26.2816 36.069 24.0543 34.6734 21.777M41.555 32.6447L40.5962 32.9288C40.5962 32.9287 40.5962 32.9286 40.5962 32.9286M41.555 32.6447L40.5962 32.9286M34.6734 21.777L33.8208 22.2997C35.2301 24.5991 36.7322 26.848 38.3238 29.041L38.3238 29.0411C38.3637 29.096 38.4035 29.1507 38.443 29.2051C39.3851 30.5016 40.2154 31.6442 40.5962 32.9286M40.1407 37.7729C40.8214 36.1766 41.0491 34.4584 40.5962 32.9286M31.8 16.753C31.7997 16.7535 31.7994 16.7539 31.7992 16.7542L31.7993 16.7541L31.8 16.753Z" stroke="#304B9D" stroke-width="2"/>
<path d="M56.235 28.7882C53.962 11.4222 40.1343 6.55027 33.5045 6.28508V6.96699L30.3223 3.9552L33.5045 1.00024V2.02312C54.3256 4.97808 59.7582 21.1735 59.8719 28.9019L58.1103 26.572L56.235 28.7882Z" fill="#304B9D" stroke="#00A1CF" stroke-width="0.113652"/>
<path d="M29.7226 5.6568C12.2847 7.28933 6.90729 20.9284 6.39835 27.5439L7.0798 27.569L3.95296 30.6383L1.11709 27.3494L2.13927 27.3871C5.85833 6.68878 22.2427 1.85578 29.97 2.02657L27.5769 3.70126L29.7226 5.6568Z" fill="#304B9D" stroke="#00A1CF" stroke-width="0.113652"/>
<path d="M6.30474 32.5828C8.32254 49.9804 22.0772 55.0548 28.7023 55.4173L28.7123 54.7355L31.85 57.7936L28.6247 60.7016L28.6397 59.6788C7.86426 56.4184 2.67008 40.1449 2.66993 32.4157L4.39713 34.7712L6.30474 32.5828Z" fill="#304B9D" stroke="#00A1CF" stroke-width="0.113652"/>
<path d="M33.1695 56.2365C50.5393 53.9919 55.4339 40.1722 55.7099 33.543L55.028 33.5418L58.045 30.3645L60.9948 33.5516L59.9719 33.55C56.9828 54.3662 40.7784 59.7722 33.0499 59.8731L35.3826 58.1154L33.1695 56.2365Z" fill="#304B9D" stroke="#00A1CF" stroke-width="0.113652"/>
</svg>
