<svg width="65" height="68" viewBox="0 0 65 68" fill="none" xmlns="http://www.w3.org/2000/svg">
<path d="M11.2615 0.990898C10.2865 1.53259 9.41045 2.07428 9.32566 2.2064C9.22675 2.32531 9.14197 2.6556 9.14197 2.93305C9.14197 3.34263 9.24088 3.51438 9.74958 3.9768C10.0746 4.26746 10.555 4.66382 10.8094 4.84879L11.2615 5.17908L11.2757 6.46064C11.2757 7.16088 11.3181 8.12535 11.3746 8.61419L11.4876 9.49939L12.9007 10.9263C13.6779 11.7058 14.3703 12.4324 14.4268 12.5249C14.4974 12.6306 14.0594 13.4762 13.3387 14.7049C12.6746 15.8147 12.0952 16.9377 12.0387 17.2019C11.9681 17.5851 11.4876 18.1532 9.89088 19.8047C8.76044 20.9806 7.75717 21.9318 7.65826 21.9318C7.57348 21.9318 7.1213 21.8129 6.65499 21.6676C5.4115 21.258 4.80389 21.2712 4.40823 21.694C4.22454 21.8922 3.78649 22.8699 3.43323 23.8872C2.69844 25.935 2.69844 26.2521 3.3767 26.7277C3.87127 27.0713 5.51042 29.9911 5.43976 30.4271C5.4115 30.6517 4.98759 30.8367 2.96692 31.5105C1.62452 31.9597 0.437551 32.4089 0.324506 32.4882C0.0136343 32.726 -0.0994101 33.3866 0.0984175 33.8226C0.211462 34.0736 0.536464 34.3378 1.11582 34.6153C1.72343 34.9192 1.92126 35.0777 1.80821 35.1834C1.72343 35.2627 1.65278 35.5533 1.65278 35.8176C1.65278 36.2139 1.86474 36.6103 2.67018 37.7465L3.70171 39.1734L5.25607 39.9265C7.67239 41.1023 7.89848 41.0891 9.02892 39.6887L9.6224 38.9488L9.94741 39.6358C10.2583 40.2964 10.2583 40.3493 10.0605 41.2345C9.94741 41.7497 9.84849 42.3046 9.84849 42.4764C9.84849 42.7406 18.7649 65.5048 19.4149 66.892C19.542 67.1695 19.754 67.4469 19.8953 67.5262C20.3616 67.7508 21.2236 67.6187 22.4953 67.1431C23.6964 66.6806 23.7812 66.6146 24.1486 65.9936C24.3606 65.6237 25.1377 64.646 25.8867 63.8137C26.6356 62.9813 27.3421 62.1093 27.441 61.8979C27.5541 61.6733 27.8791 60.2332 28.1617 58.6742L28.6845 55.8469L28.3736 54.9484L28.0628 54.05L28.5715 52.5439C29.0519 51.117 29.1084 51.0245 29.6171 50.7603C29.9139 50.6017 30.3519 50.4696 30.5921 50.4696C31.3552 50.4696 31.6943 50.245 32.4715 49.2277C33.065 48.4482 33.3617 48.1971 33.828 48.0254C34.7182 47.7083 36.6824 45.7265 37.0922 44.7224L37.4313 43.9297L39.6215 42.8199C42.0237 41.5912 42.1085 41.4987 42.264 40.2436C42.3205 39.7415 42.4477 39.398 42.6031 39.2923C42.7303 39.1866 43.0835 38.962 43.3661 38.7638L43.889 38.4203L45.0477 38.6185C46.7292 38.9092 47.2944 38.6581 47.2944 37.6408C47.2944 37.4162 46.8846 35.7911 46.3759 34.0604C45.8672 32.3164 45.4575 30.8235 45.4575 30.731C45.4575 30.6385 45.9662 30.3742 46.5879 30.1364L47.7183 29.7136L48.3118 30.0968C49.2727 30.7045 49.7814 30.9159 50.3325 30.9159C50.601 30.9159 50.8271 30.982 50.8271 31.0481C50.8271 31.1273 50.5303 31.603 50.1629 32.1182C49.3575 33.2544 49.2868 33.8226 49.8945 34.2982C50.1771 34.536 50.4455 34.6153 50.9542 34.6153H51.6325L52.7206 36.0025C53.8934 37.4823 54.0912 37.654 54.7836 37.654C55.5608 37.654 55.8293 37.2445 56.1119 35.6062C56.5075 33.2016 56.3662 33.4394 57.2989 33.5187C58.0336 33.5847 58.1326 33.5583 58.4434 33.2412C58.7402 32.9506 58.8391 32.5806 59.1217 30.9556C59.4043 29.3305 59.5173 28.9209 59.8706 28.4189C60.1108 28.1018 60.2945 27.6658 60.2945 27.4808C60.2945 27.1373 60.3934 27.0845 62.2022 26.4899C63.3891 26.1068 64.1946 25.7633 64.3076 25.6047C64.4206 25.4594 64.6185 24.7856 64.7598 24.1118L65 22.8699L63.8272 21.2052C62.0467 18.6949 62.3717 18.8931 59.9837 18.9063C56.9315 18.9195 56.5499 18.9988 55.8575 19.7122C55.5325 20.0425 54.4162 20.8088 53.2999 21.4694C51.1662 22.7113 50.5445 23.2134 50.5445 23.689C50.5303 24.4685 50.4173 24.5742 49.5553 24.5742H48.7499L46.927 23.187C45.2738 21.9318 45.0477 21.7997 44.5248 21.7997C43.7759 21.7997 43.5498 22.0507 42.702 23.7815C42.3346 24.5478 42.0237 25.182 42.0096 25.2084C41.9672 25.2348 28.5149 19.8708 28.416 19.7783C28.3736 19.7386 28.5149 19.1177 28.7128 18.391C29.278 16.2903 29.1791 15.9072 27.9215 15.524C27.2432 15.3126 27.1443 15.2202 26.3106 14.0179C25.3638 12.6967 25.378 12.7231 26.0138 12.3532C26.141 12.2739 26.2964 12.0229 26.3671 11.7983C26.4801 11.4415 26.4377 11.2434 26.0986 10.6224L25.703 9.88253L26.9606 7.45154C27.7943 5.85289 28.2182 4.87521 28.2182 4.57133C28.2182 4.02965 27.9073 3.7522 26.2541 2.84057L25.0953 2.21961L22.5377 2.33852L19.9801 2.47063L16.9844 1.22871C15.1333 0.475639 13.7909 7.62939e-06 13.4942 7.62939e-06C13.1692 7.62939e-06 12.5192 0.290672 11.2615 0.990898ZM16.7725 3.69935L19.3866 4.76952L21.9442 4.67703C24.4312 4.59776 24.6149 4.61097 25.2225 4.99412C25.3497 5.07339 25.1095 5.65472 24.2475 7.31942C23.1453 9.45975 22.9899 9.93538 23.1877 10.5167C23.2584 10.7413 23.216 10.8206 22.9475 10.8866C22.4529 10.9923 22.0997 11.5737 22.1845 12.0889C22.2268 12.3135 22.9899 13.5422 23.8801 14.8238C25.1377 16.6206 25.5899 17.1623 25.9291 17.2944C26.1834 17.4001 26.3812 17.4926 26.3812 17.5058C26.3812 17.5322 26.2258 18.1136 26.028 18.7874C25.6323 20.1614 25.5899 20.822 25.8725 21.1787C26.1551 21.5222 42.1227 27.8772 42.702 27.8772C43.3096 27.8772 43.6205 27.5337 44.3411 26.0539C44.6661 25.3933 44.977 24.8384 45.0335 24.8384C45.0901 24.8384 45.7118 25.2877 46.4325 25.8293C47.252 26.4503 47.902 26.8467 48.2129 26.8995C48.4814 26.9391 49.4564 26.9656 50.389 26.9391C52.5934 26.8731 52.6216 26.8467 52.876 25.0763L52.9608 24.4553L54.8967 23.3059C55.9565 22.6717 57.0586 21.9582 57.3271 21.7204C57.8076 21.3109 57.8782 21.2976 59.3054 21.2316L60.8032 21.1655L61.6087 22.315C62.6967 23.874 62.6967 23.8872 60.4641 24.5874C59.475 24.9045 58.5282 25.2877 58.3586 25.4462C58.1749 25.6179 58.0195 25.9879 57.963 26.371C57.9065 26.7277 57.6804 27.2694 57.4684 27.5865C57.2565 27.8904 57.0304 28.4189 56.988 28.7756C56.9315 29.1191 56.8184 29.7665 56.7336 30.2157L56.5923 31.0481L55.8434 30.9688C55.1369 30.8895 55.0521 30.9027 54.6564 31.2727C54.3314 31.5765 54.2184 31.8276 54.1477 32.4485C54.0912 32.8713 54.0064 33.2941 53.9499 33.3734C53.9075 33.4526 53.6814 33.2809 53.413 32.9506L52.9749 32.3957L53.6673 31.4312C54.4162 30.361 54.5293 29.8326 54.1195 29.3437C53.8369 29.0134 53.2151 28.8681 51.6042 28.7228C50.601 28.6435 50.3749 28.5774 49.6542 28.115C48.2694 27.2298 48.001 27.1637 47.0542 27.4676C45.7542 27.8904 43.3379 28.8681 43.0411 29.1059C42.5466 29.5155 42.589 29.8722 43.4651 32.9241C43.9455 34.5492 44.327 35.9233 44.327 35.9761C44.327 36.029 44.0727 36.0686 43.7477 36.0686C43.4368 36.0686 43.0411 36.1346 42.8716 36.2271C42.3487 36.4782 40.2292 38.0636 40.102 38.2882C40.0313 38.4203 39.9324 38.8695 39.8759 39.3055L39.777 40.0982L37.8128 41.0891C36.7248 41.6308 35.7215 42.1989 35.5802 42.3443C35.4248 42.4896 35.1422 42.9916 34.9302 43.4673C34.4639 44.5374 33.3758 45.6208 32.3584 46.0436C31.765 46.2946 31.4682 46.5457 30.903 47.2723C30.2671 48.0915 30.1258 48.1971 29.6171 48.2632C29.066 48.3293 27.766 48.9767 27.2291 49.4391C26.9747 49.6637 25.5334 53.4951 25.5334 53.9576C25.5334 54.1029 25.6747 54.6181 25.8443 55.0938L26.141 55.979L25.6747 58.4364L25.2084 60.8938L23.8801 62.3868C23.1453 63.2059 22.4247 64.0911 22.2834 64.3553C22.0431 64.7781 21.4921 65.1084 21.3225 64.9367C21.2801 64.9102 19.2594 59.8369 16.8148 53.6801L12.3637 42.4764L12.5898 41.2477L12.8159 40.019L12.2931 38.8695C11.8409 37.8522 11.7702 37.588 11.7702 36.5706C11.7561 35.5533 11.7137 35.3948 11.417 35.0909C11.0213 34.6945 10.3713 34.6417 9.89088 34.9456C9.72132 35.0513 9.05718 35.7779 8.42131 36.5706C7.78543 37.3501 7.22021 38.0372 7.16369 38.09C7.10717 38.1561 6.68325 38.024 6.23107 37.8126C5.5952 37.5087 5.31259 37.2709 5.05824 36.8481C4.73324 36.3064 4.73324 36.2668 4.97345 36.1346C5.55281 35.8308 5.89194 35.408 5.89194 35.0116C5.89194 34.4171 5.67998 34.1264 5.01585 33.8093L4.42236 33.5319L4.84628 33.3601C5.07237 33.2809 5.69411 33.0695 6.21694 32.9109C6.7539 32.7392 7.34739 32.4749 7.55934 32.3032C7.92674 31.9993 7.94087 31.9597 7.91261 30.6781L7.89848 29.3701L6.95173 27.5997C6.4289 26.6221 5.90607 25.7236 5.7789 25.5915C5.58107 25.3801 5.58107 25.3009 5.79303 24.6535L6.03325 23.94L6.89521 24.1911C7.87022 24.4817 8.54848 24.5081 8.87348 24.2703C8.98653 24.1778 10.2159 22.9491 11.6007 21.5355C14.0311 19.0516 14.5116 18.4307 14.5116 17.8229C14.5116 17.6644 15.1474 16.4621 15.9246 15.1541C16.7301 13.7933 17.3377 12.6042 17.3377 12.3928C17.3377 12.0361 16.9985 11.6265 14.9214 9.48618L13.8474 8.38959L13.7627 6.27568L13.6637 4.17498L13.0703 3.60686C12.7453 3.30299 12.505 3.02554 12.5474 2.99911C13.0844 2.61597 13.6072 2.41779 13.8616 2.51028C14.0311 2.57633 15.3311 3.10481 16.7725 3.69935Z" fill="#405BAE"/>
<path d="M24.6326 44.0108C24.1431 44.0842 23.7279 44.3478 23.4747 44.7439C23.3886 44.8796 23.3186 45.0493 23.2806 45.2166C23.2502 45.3492 23.2426 45.5969 23.2645 45.7469C23.343 46.2953 23.7076 46.9258 24.3195 47.5729C24.4503 47.711 24.7559 47.9982 24.7964 48.0219C24.8369 48.0448 24.9078 48.0448 24.9483 48.0219C24.9888 47.9982 25.2943 47.711 25.4251 47.5729C26.0379 46.925 26.4016 46.2953 26.4801 45.7469C26.5021 45.5969 26.4945 45.3492 26.4641 45.2166C26.3729 44.8157 26.1256 44.4717 25.767 44.2476C25.6032 44.1442 25.3829 44.0597 25.1804 44.0211C25.0605 43.9982 24.7516 43.9927 24.6326 44.0108ZM25.0437 44.6934C25.2243 44.7273 25.361 44.7952 25.4935 44.9175C25.6209 45.0343 25.6952 45.1519 25.7399 45.3073C25.7594 45.3744 25.7619 45.3981 25.7619 45.5133C25.7619 45.6285 25.7594 45.6522 25.7399 45.7193C25.6952 45.8747 25.6209 45.9923 25.4935 46.1091C25.1998 46.379 24.7711 46.4271 24.4115 46.229C24.3069 46.1722 24.1676 46.042 24.1068 45.9442C23.9347 45.6711 23.9347 45.3531 24.106 45.084C24.1575 45.0035 24.2571 44.9002 24.3389 44.8426C24.5381 44.7029 24.8006 44.6468 25.0437 44.6934Z" fill="#405BAE"/>
<path d="M17.3807 38.0108C16.8912 38.0842 16.4759 38.3478 16.2227 38.7439C16.1367 38.8796 16.0666 39.0493 16.0286 39.2166C15.9982 39.3492 15.9907 39.5969 16.0126 39.7469C16.0911 40.2953 16.4557 40.9258 17.0676 41.5729C17.1984 41.711 17.5039 41.9982 17.5444 42.0219C17.5849 42.0448 17.6558 42.0448 17.6963 42.0219C17.7369 41.9982 18.0424 41.711 18.1732 41.5729C18.7859 40.925 19.1497 40.2953 19.2282 39.7469C19.2501 39.5969 19.2425 39.3492 19.2121 39.2166C19.121 38.8157 18.8737 38.4717 18.515 38.2476C18.3513 38.1442 18.131 38.0597 17.9284 38.0211C17.8086 37.9982 17.4997 37.9927 17.3807 38.0108ZM17.7917 38.6934C17.9723 38.7273 18.109 38.7952 18.2416 38.9175C18.369 39.0343 18.4433 39.1519 18.488 39.3073C18.5074 39.3744 18.5099 39.3981 18.5099 39.5133C18.5099 39.6285 18.5074 39.6522 18.488 39.7193C18.4433 39.8747 18.369 39.9923 18.2416 40.1091C17.9478 40.379 17.5191 40.4271 17.1596 40.229C17.0549 40.1722 16.9157 40.042 16.8549 39.9442C16.6827 39.6711 16.6827 39.3531 16.854 39.084C16.9055 39.0035 17.0051 38.9002 17.087 38.8426C17.2862 38.7029 17.5486 38.6468 17.7917 38.6934Z" fill="#405BAE"/>
<path d="M10.3453 26.0105C9.86834 26.0821 9.46374 26.3389 9.21704 26.7248C9.13316 26.8571 9.0649 27.0224 9.0279 27.1854C8.99829 27.3146 8.99089 27.556 9.01227 27.7021C9.08875 28.2365 9.44401 28.8508 10.0402 29.4813C10.1677 29.6159 10.4654 29.8958 10.5048 29.9188C10.5443 29.9411 10.6134 29.9411 10.6529 29.9188C10.6923 29.8958 10.99 29.6159 11.1175 29.4813C11.7145 28.8501 12.069 28.2365 12.1454 27.7021C12.1668 27.556 12.1594 27.3146 12.1298 27.1854C12.041 26.7948 11.8 26.4596 11.4505 26.2412C11.291 26.1405 11.0764 26.0582 10.879 26.0205C10.7622 25.9982 10.4613 25.9929 10.3453 26.0105ZM10.7458 26.6756C10.9218 26.7087 11.055 26.7748 11.1841 26.894C11.3083 27.0078 11.3806 27.1224 11.4242 27.2738C11.4431 27.3392 11.4456 27.3623 11.4456 27.4745C11.4456 27.5868 11.4431 27.6098 11.4242 27.6752C11.3806 27.8267 11.3083 27.9412 11.1841 28.055C10.8979 28.318 10.4802 28.3649 10.1298 28.1719C10.0279 28.1165 9.89219 27.9897 9.83298 27.8943C9.66522 27.6283 9.66522 27.3184 9.83216 27.0562C9.88232 26.9778 9.97936 26.8771 10.0591 26.821C10.2532 26.6849 10.509 26.6303 10.7458 26.6756Z" fill="#405BAE"/>
<path d="M20.3453 16.0105C19.8683 16.0821 19.4637 16.3389 19.217 16.7248C19.1332 16.8571 19.0649 17.0224 19.0279 17.1854C18.9983 17.3146 18.9909 17.556 19.0123 17.7021C19.0888 18.2365 19.444 18.8508 20.0402 19.4813C20.1677 19.6159 20.4654 19.8958 20.5048 19.9188C20.5443 19.9411 20.6134 19.9411 20.6529 19.9188C20.6923 19.8958 20.99 19.6159 21.1175 19.4813C21.7145 18.8501 22.069 18.2365 22.1454 17.7021C22.1668 17.556 22.1594 17.3146 22.1298 17.1854C22.041 16.7948 21.8 16.4596 21.4505 16.2412C21.291 16.1405 21.0764 16.0582 20.879 16.0205C20.7622 15.9982 20.4613 15.9929 20.3453 16.0105ZM20.7458 16.6756C20.9218 16.7087 21.055 16.7748 21.1841 16.894C21.3083 17.0078 21.3806 17.1224 21.4242 17.2738C21.4431 17.3392 21.4456 17.3623 21.4456 17.4745C21.4456 17.5868 21.4431 17.6098 21.4242 17.6752C21.3806 17.8267 21.3083 17.9412 21.1841 18.055C20.8979 18.318 20.4802 18.3649 20.1298 18.1719C20.0279 18.1165 19.8922 17.9897 19.833 17.8943C19.6652 17.6283 19.6652 17.3184 19.8322 17.0562C19.8823 16.9778 19.9794 16.8771 20.0591 16.821C20.2532 16.6849 20.509 16.6303 20.7458 16.6756Z" fill="#405BAE"/>
<path d="M15.8521 34.4496C15.55 34.4949 15.2937 34.6575 15.1375 34.902C15.0843 34.9857 15.0411 35.0904 15.0177 35.1937C14.9989 35.2755 14.9942 35.4284 15.0078 35.521C15.0562 35.8594 15.2812 36.2485 15.6588 36.6479C15.7396 36.7331 15.9281 36.9103 15.9531 36.925C15.9781 36.9391 16.0219 36.9391 16.0469 36.925C16.0719 36.9103 16.2604 36.7331 16.3412 36.6479C16.7193 36.248 16.9438 35.8594 16.9922 35.521C17.0058 35.4284 17.0011 35.2755 16.9823 35.1937C16.9261 34.9463 16.7735 34.734 16.5521 34.5957C16.4511 34.5319 16.3151 34.4798 16.1901 34.4559C16.1162 34.4418 15.9255 34.4384 15.8521 34.4496ZM16.1057 34.8708C16.2172 34.8918 16.3016 34.9336 16.3833 35.0091C16.462 35.0812 16.5078 35.1538 16.5354 35.2497C16.5474 35.2911 16.549 35.3057 16.549 35.3768C16.549 35.4479 16.5474 35.4625 16.5354 35.5039C16.5078 35.5998 16.462 35.6724 16.3833 35.7445C16.2021 35.911 15.9375 35.9407 15.7156 35.8185C15.651 35.7834 15.5651 35.7031 15.5276 35.6427C15.4213 35.4742 15.4213 35.2779 15.5271 35.1119C15.5588 35.0622 15.6203 34.9984 15.6708 34.9629C15.7937 34.8767 15.9557 34.8421 16.1057 34.8708Z" fill="#405BAE"/>
<path d="M15.8521 31.0062C15.55 31.0515 15.2937 31.2142 15.1375 31.4586C15.0843 31.5424 15.0411 31.6471 15.0177 31.7503C14.9989 31.8321 14.9942 31.9851 15.0078 32.0776C15.0562 32.4161 15.2812 32.8052 15.6588 33.2045C15.7396 33.2897 15.9281 33.467 15.9531 33.4816C15.9781 33.4957 16.0219 33.4957 16.0469 33.4816C16.0719 33.467 16.2604 33.2897 16.3412 33.2045C16.7193 32.8047 16.9438 32.4161 16.9922 32.0776C17.0058 31.9851 17.0011 31.8321 16.9823 31.7503C16.9261 31.5029 16.7735 31.2906 16.5521 31.1523C16.4511 31.0885 16.3151 31.0364 16.1901 31.0125C16.1162 30.9984 15.9255 30.995 15.8521 31.0062ZM16.1057 31.4275C16.2172 31.4484 16.3016 31.4903 16.3833 31.5658C16.462 31.6378 16.5078 31.7104 16.5354 31.8063C16.5474 31.8477 16.549 31.8623 16.549 31.9334C16.549 32.0045 16.5474 32.0192 16.5354 32.0605C16.5078 32.1565 16.462 32.229 16.3833 32.3011C16.2021 32.4677 15.9375 32.4974 15.7156 32.3751C15.651 32.3401 15.5651 32.2597 15.5276 32.1993C15.4213 32.0308 15.4213 31.8346 15.5271 31.6685C15.5588 31.6188 15.6203 31.555 15.6708 31.5195C15.7937 31.4333 15.9557 31.3987 16.1057 31.4275Z" fill="#405BAE"/>
<path d="M18.8521 33.0062C18.55 33.0515 18.2937 33.2142 18.1375 33.4586C18.0843 33.5424 18.0411 33.6471 18.0177 33.7503C17.9989 33.8321 17.9942 33.9851 18.0078 34.0776C18.0562 34.4161 18.2812 34.8052 18.6588 35.2045C18.7396 35.2897 18.9281 35.467 18.9531 35.4816C18.9781 35.4957 19.0219 35.4957 19.0469 35.4816C19.0719 35.467 19.2604 35.2897 19.3412 35.2045C19.7193 34.8047 19.9438 34.4161 19.9922 34.0776C20.0058 33.9851 20.0011 33.8321 19.9823 33.7503C19.9261 33.5029 19.7735 33.2906 19.5521 33.1523C19.4511 33.0885 19.3151 33.0364 19.1901 33.0125C19.1162 32.9984 18.9255 32.995 18.8521 33.0062ZM19.1057 33.4275C19.2172 33.4484 19.3016 33.4903 19.3833 33.5658C19.462 33.6378 19.5078 33.7104 19.5354 33.8063C19.5474 33.8477 19.549 33.8623 19.549 33.9334C19.549 34.0045 19.5474 34.0192 19.5354 34.0605C19.5078 34.1565 19.462 34.229 19.3833 34.3011C19.2021 34.4677 18.9375 34.4974 18.7156 34.3751C18.651 34.3401 18.5651 34.2597 18.5276 34.1993C18.4213 34.0308 18.4213 33.8346 18.5271 33.6685C18.5588 33.6188 18.6203 33.555 18.6708 33.5195C18.7937 33.4333 18.9557 33.3987 19.1057 33.4275Z" fill="#405BAE"/>
<path d="M25.8521 38.0062C25.55 38.0515 25.2937 38.2142 25.1375 38.4586C25.0843 38.5424 25.0411 38.6471 25.0177 38.7503C24.9989 38.8321 24.9942 38.9851 25.0078 39.0776C25.0562 39.4161 25.2812 39.8052 25.6588 40.2045C25.7396 40.2897 25.9281 40.467 25.9531 40.4816C25.9781 40.4957 26.0219 40.4957 26.0469 40.4816C26.0719 40.467 26.2604 40.2897 26.3412 40.2045C26.7193 39.8047 26.9438 39.4161 26.9922 39.0776C27.0058 38.9851 27.0011 38.8321 26.9823 38.7503C26.9261 38.5029 26.7735 38.2906 26.5521 38.1523C26.4511 38.0885 26.3151 38.0364 26.1901 38.0125C26.1162 37.9984 25.9255 37.995 25.8521 38.0062ZM26.1057 38.4275C26.2172 38.4484 26.3016 38.4903 26.3833 38.5658C26.462 38.6378 26.5078 38.7104 26.5354 38.8063C26.5474 38.8477 26.549 38.8623 26.549 38.9334C26.549 39.0045 26.5474 39.0192 26.5354 39.0605C26.5078 39.1565 26.462 39.229 26.3833 39.3011C26.2021 39.4677 25.9375 39.4974 25.7156 39.3751C25.651 39.3401 25.5651 39.2597 25.5276 39.1993C25.4213 39.0308 25.4213 38.8346 25.5271 38.6685C25.5588 38.6188 25.6203 38.555 25.6708 38.5195C25.7937 38.4333 25.9557 38.3987 26.1057 38.4275Z" fill="#405BAE"/>
<path d="M31.8521 43.0062C31.55 43.0515 31.2937 43.2142 31.1375 43.4586C31.0843 43.5424 31.0411 43.6471 31.0177 43.7503C30.9989 43.8321 30.9942 43.9851 31.0078 44.0776C31.0562 44.4161 31.2812 44.8052 31.6588 45.2045C31.7396 45.2897 31.9281 45.467 31.9531 45.4816C31.9781 45.4957 32.0219 45.4957 32.0469 45.4816C32.0719 45.467 32.2604 45.2897 32.3412 45.2045C32.7193 44.8047 32.9438 44.4161 32.9922 44.0776C33.0058 43.9851 33.0011 43.8321 32.9823 43.7503C32.9261 43.5029 32.7735 43.2906 32.5521 43.1523C32.4511 43.0885 32.3151 43.0364 32.1901 43.0125C32.1162 42.9984 31.9255 42.995 31.8521 43.0062ZM32.1057 43.4275C32.2172 43.4484 32.3016 43.4903 32.3833 43.5658C32.462 43.6378 32.5078 43.7104 32.5354 43.8063C32.5474 43.8477 32.549 43.8623 32.549 43.9334C32.549 44.0045 32.5474 44.0192 32.5354 44.0605C32.5078 44.1565 32.462 44.229 32.3833 44.3011C32.2021 44.4677 31.9375 44.4974 31.7156 44.3751C31.651 44.3401 31.5651 44.2597 31.5276 44.1993C31.4213 44.0308 31.4213 43.8346 31.5271 43.6685C31.5588 43.6188 31.6203 43.555 31.6708 43.5195C31.7937 43.4333 31.9557 43.3987 32.1057 43.4275Z" fill="#405BAE"/>
<path d="M32.8521 40.0062C32.55 40.0515 32.2937 40.2142 32.1375 40.4586C32.0843 40.5424 32.0411 40.6471 32.0177 40.7503C31.9989 40.8321 31.9942 40.9851 32.0078 41.0776C32.0562 41.4161 32.2812 41.8052 32.6588 42.2045C32.7396 42.2897 32.9281 42.467 32.9531 42.4816C32.9781 42.4957 33.0219 42.4957 33.0469 42.4816C33.0719 42.467 33.2604 42.2897 33.3412 42.2045C33.7193 41.8047 33.9438 41.4161 33.9922 41.0776C34.0058 40.9851 34.0011 40.8321 33.9823 40.7503C33.9261 40.5029 33.7735 40.2906 33.5521 40.1523C33.4511 40.0885 33.3151 40.0364 33.1901 40.0125C33.1162 39.9984 32.9255 39.995 32.8521 40.0062ZM33.1057 40.4275C33.2172 40.4484 33.3016 40.4903 33.3833 40.5658C33.462 40.6378 33.5078 40.7104 33.5354 40.8063C33.5474 40.8477 33.549 40.8623 33.549 40.9334C33.549 41.0045 33.5474 41.0192 33.5354 41.0605C33.5078 41.1565 33.462 41.229 33.3833 41.3011C33.2021 41.4677 32.9375 41.4974 32.7156 41.3751C32.651 41.3401 32.5651 41.2597 32.5276 41.1993C32.4213 41.0308 32.4213 40.8346 32.5271 40.6685C32.5588 40.6188 32.6203 40.555 32.6708 40.5195C32.7937 40.4333 32.9557 40.3987 33.1057 40.4275Z" fill="#405BAE"/>
<path d="M29.8521 40.0062C29.55 40.0515 29.2937 40.2142 29.1375 40.4586C29.0843 40.5424 29.0411 40.6471 29.0177 40.7503C28.9989 40.8321 28.9942 40.9851 29.0078 41.0776C29.0562 41.4161 29.2812 41.8052 29.6588 42.2045C29.7396 42.2897 29.9281 42.467 29.9531 42.4816C29.9781 42.4957 30.0219 42.4957 30.0469 42.4816C30.0719 42.467 30.2604 42.2897 30.3412 42.2045C30.7193 41.8047 30.9438 41.4161 30.9922 41.0776C31.0058 40.9851 31.0011 40.8321 30.9823 40.7503C30.9261 40.5029 30.7735 40.2906 30.5521 40.1523C30.4511 40.0885 30.3151 40.0364 30.1901 40.0125C30.1162 39.9984 29.9255 39.995 29.8521 40.0062ZM30.1057 40.4275C30.2172 40.4484 30.3016 40.4903 30.3833 40.5658C30.462 40.6378 30.5078 40.7104 30.5354 40.8063C30.5474 40.8477 30.549 40.8623 30.549 40.9334C30.549 41.0045 30.5474 41.0192 30.5354 41.0605C30.5078 41.1565 30.462 41.229 30.3833 41.3011C30.2021 41.4677 29.9375 41.4974 29.7156 41.3751C29.651 41.3401 29.5651 41.2597 29.5276 41.1993C29.4213 41.0308 29.4213 40.8346 29.5271 40.6685C29.5588 40.6188 29.6203 40.555 29.6708 40.5195C29.7937 40.4333 29.9557 40.3987 30.1057 40.4275Z" fill="#405BAE"/>
<path d="M21.8521 24.0062C21.55 24.0515 21.2937 24.2142 21.1375 24.4586C21.0843 24.5424 21.0411 24.6471 21.0177 24.7503C20.9989 24.8321 20.9942 24.9851 21.0078 25.0776C21.0562 25.4161 21.2812 25.8052 21.6588 26.2045C21.7396 26.2897 21.9281 26.467 21.9531 26.4816C21.9781 26.4957 22.0219 26.4957 22.0469 26.4816C22.0719 26.467 22.2604 26.2897 22.3412 26.2045C22.7193 25.8047 22.9438 25.4161 22.9922 25.0776C23.0058 24.9851 23.0011 24.8321 22.9823 24.7503C22.9261 24.5029 22.7735 24.2906 22.5521 24.1523C22.4511 24.0885 22.3151 24.0364 22.1901 24.0125C22.1162 23.9984 21.9255 23.995 21.8521 24.0062ZM22.1057 24.4275C22.2172 24.4484 22.3016 24.4903 22.3833 24.5658C22.462 24.6378 22.5078 24.7104 22.5354 24.8063C22.5474 24.8477 22.549 24.8623 22.549 24.9334C22.549 25.0045 22.5474 25.0192 22.5354 25.0605C22.5078 25.1565 22.462 25.229 22.3833 25.3011C22.2021 25.4677 21.9375 25.4974 21.7156 25.3751C21.651 25.3401 21.5651 25.2597 21.5276 25.1993C21.4213 25.0308 21.4213 24.8346 21.5271 24.6685C21.5588 24.6188 21.6203 24.555 21.6708 24.5195C21.7937 24.4333 21.9557 24.3987 22.1057 24.4275Z" fill="#405BAE"/>
<path d="M18.8521 23.0062C18.55 23.0515 18.2937 23.2142 18.1375 23.4586C18.0843 23.5424 18.0411 23.6471 18.0177 23.7503C17.9989 23.8321 17.9942 23.9851 18.0078 24.0776C18.0562 24.4161 18.2812 24.8052 18.6588 25.2045C18.7396 25.2897 18.9281 25.467 18.9531 25.4816C18.9781 25.4957 19.0219 25.4957 19.0469 25.4816C19.0719 25.467 19.2604 25.2897 19.3412 25.2045C19.7193 24.8047 19.9438 24.4161 19.9922 24.0776C20.0058 23.9851 20.0011 23.8321 19.9823 23.7503C19.9261 23.5029 19.7735 23.2906 19.5521 23.1523C19.4511 23.0885 19.3151 23.0364 19.1901 23.0125C19.1162 22.9984 18.9255 22.995 18.8521 23.0062ZM19.1057 23.4275C19.2172 23.4484 19.3016 23.4903 19.3833 23.5658C19.462 23.6378 19.5078 23.7104 19.5354 23.8063C19.5474 23.8477 19.549 23.8623 19.549 23.9334C19.549 24.0045 19.5474 24.0192 19.5354 24.0605C19.5078 24.1565 19.462 24.229 19.3833 24.3011C19.2021 24.4677 18.9375 24.4974 18.7156 24.3751C18.651 24.3401 18.5651 24.2597 18.5276 24.1993C18.4213 24.0308 18.4213 23.8346 18.5271 23.6685C18.5588 23.6188 18.6203 23.555 18.6708 23.5195C18.7937 23.4333 18.9557 23.3987 19.1057 23.4275Z" fill="#405BAE"/>
<path d="M14.8521 18.0062C14.55 18.0515 14.2937 18.2142 14.1375 18.4586C14.0843 18.5424 14.0411 18.6471 14.0177 18.7503C13.9989 18.8321 13.9942 18.9851 14.0078 19.0776C14.0562 19.4161 14.2812 19.8052 14.6588 20.2045C14.7396 20.2897 14.9281 20.467 14.9531 20.4816C14.9781 20.4957 15.0219 20.4957 15.0469 20.4816C15.0719 20.467 15.2604 20.2897 15.3412 20.2045C15.7193 19.8047 15.9438 19.4161 15.9922 19.0776C16.0058 18.9851 16.0011 18.8321 15.9823 18.7503C15.9261 18.5029 15.7735 18.2906 15.5521 18.1523C15.4511 18.0885 15.3151 18.0364 15.1901 18.0125C15.1162 17.9984 14.9255 17.995 14.8521 18.0062ZM15.1057 18.4275C15.2172 18.4484 15.3016 18.4903 15.3833 18.5658C15.462 18.6378 15.5078 18.7104 15.5354 18.8063C15.5474 18.8477 15.549 18.8623 15.549 18.9334C15.549 19.0045 15.5474 19.0192 15.5354 19.0605C15.5078 19.1565 15.462 19.229 15.3833 19.3011C15.2021 19.4677 14.9375 19.4974 14.7156 19.3751C14.651 19.3401 14.5651 19.2597 14.5276 19.1993C14.4213 19.0308 14.4213 18.8346 14.5271 18.6685C14.5588 18.6188 14.6203 18.555 14.6708 18.5195C14.7937 18.4333 14.9557 18.3987 15.1057 18.4275Z" fill="#405BAE"/>
<path d="M13.8521 41.0067C13.55 41.052 13.2937 41.2146 13.1375 41.4591C13.0843 41.5429 13.0411 41.6476 13.0177 41.7508C12.9989 41.8326 12.9942 41.9856 13.0078 42.0781C13.0562 42.4165 13.2812 42.8056 13.6588 43.205C13.7396 43.2902 13.9281 43.4675 13.9531 43.4821C13.9781 43.4962 14.0219 43.4962 14.0469 43.4821C14.0719 43.4675 14.2604 43.2902 14.3412 43.205C14.7193 42.8052 14.9438 42.4165 14.9922 42.0781C15.0058 41.9856 15.0011 41.8326 14.9823 41.7508C14.9261 41.5034 14.7735 41.2911 14.5521 41.1528C14.4511 41.089 14.3151 41.0369 14.1901 41.013C14.1162 40.9989 13.9255 40.9955 13.8521 41.0067ZM14.1057 41.4279C14.2172 41.4489 14.3016 41.4908 14.3833 41.5662C14.462 41.6383 14.5078 41.7109 14.5354 41.8068C14.5474 41.8482 14.549 41.8628 14.549 41.9339C14.549 42.005 14.5474 42.0196 14.5354 42.061C14.5078 42.157 14.462 42.2295 14.3833 42.3016C14.2021 42.4682 13.9375 42.4979 13.7156 42.3756C13.651 42.3406 13.5651 42.2602 13.5276 42.1998C13.4213 42.0313 13.4213 41.8351 13.5271 41.669C13.5588 41.6193 13.6203 41.5555 13.6708 41.52C13.7937 41.4338 13.9557 41.3992 14.1057 41.4279Z" fill="#405BAE"/>
<path d="M34.8521 27.0067C34.55 27.052 34.2937 27.2146 34.1375 27.4591C34.0843 27.5429 34.0411 27.6476 34.0177 27.7508C33.9989 27.8326 33.9942 27.9856 34.0078 28.0781C34.0562 28.4165 34.2812 28.8056 34.6588 29.205C34.7396 29.2902 34.9281 29.4675 34.9531 29.4821C34.9781 29.4962 35.0219 29.4962 35.0469 29.4821C35.0719 29.4675 35.2604 29.2902 35.3412 29.205C35.7193 28.8052 35.9438 28.4165 35.9922 28.0781C36.0058 27.9856 36.0011 27.8326 35.9823 27.7508C35.9261 27.5034 35.7735 27.2911 35.5521 27.1528C35.4511 27.089 35.3151 27.0369 35.1901 27.013C35.1162 26.9989 34.9255 26.9955 34.8521 27.0067ZM35.1057 27.4279C35.2172 27.4489 35.3016 27.4908 35.3833 27.5662C35.462 27.6383 35.5078 27.7109 35.5354 27.8068C35.5474 27.8482 35.549 27.8628 35.549 27.9339C35.549 28.005 35.5474 28.0196 35.5354 28.061C35.5078 28.157 35.462 28.2295 35.3833 28.3016C35.2021 28.4682 34.9375 28.4979 34.7156 28.3756C34.651 28.3406 34.5651 28.2602 34.5276 28.1998C34.4213 28.0313 34.4213 27.8351 34.5271 27.669C34.5588 27.6193 34.6203 27.5555 34.6708 27.52C34.7937 27.4338 34.9557 27.3992 35.1057 27.4279Z" fill="#405BAE"/>
<path d="M15.8521 43.0062C15.55 43.0515 15.2937 43.2142 15.1375 43.4586C15.0843 43.5424 15.0411 43.6471 15.0177 43.7503C14.9989 43.8321 14.9942 43.9851 15.0078 44.0776C15.0562 44.4161 15.2812 44.8052 15.6588 45.2045C15.7396 45.2897 15.9281 45.467 15.9531 45.4816C15.9781 45.4957 16.0219 45.4957 16.0469 45.4816C16.0719 45.467 16.2604 45.2897 16.3412 45.2045C16.7193 44.8047 16.9438 44.4161 16.9922 44.0776C17.0058 43.9851 17.0011 43.8321 16.9823 43.7503C16.9261 43.5029 16.7735 43.2906 16.5521 43.1523C16.4511 43.0885 16.3151 43.0364 16.1901 43.0125C16.1162 42.9984 15.9255 42.995 15.8521 43.0062ZM16.1057 43.4275C16.2172 43.4484 16.3016 43.4903 16.3833 43.5658C16.462 43.6378 16.5078 43.7104 16.5354 43.8063C16.5474 43.8477 16.549 43.8623 16.549 43.9334C16.549 44.0045 16.5474 44.0192 16.5354 44.0605C16.5078 44.1565 16.462 44.229 16.3833 44.3011C16.2021 44.4677 15.9375 44.4974 15.7156 44.3751C15.651 44.3401 15.5651 44.2597 15.5276 44.1993C15.4213 44.0308 15.4213 43.8346 15.5271 43.6685C15.5588 43.6188 15.6203 43.555 15.6708 43.5195C15.7937 43.4333 15.9557 43.3987 16.1057 43.4275Z" fill="#405BAE"/>
<path d="M18.8521 47.0062C18.55 47.0515 18.2937 47.2142 18.1375 47.4586C18.0843 47.5424 18.0411 47.6471 18.0177 47.7503C17.9989 47.8321 17.9942 47.9851 18.0078 48.0776C18.0562 48.4161 18.2812 48.8052 18.6588 49.2045C18.7396 49.2897 18.9281 49.467 18.9531 49.4816C18.9781 49.4957 19.0219 49.4957 19.0469 49.4816C19.0719 49.467 19.2604 49.2897 19.3412 49.2045C19.7193 48.8047 19.9438 48.4161 19.9922 48.0776C20.0058 47.9851 20.0011 47.8321 19.9823 47.7503C19.9261 47.5029 19.7735 47.2906 19.5521 47.1523C19.4511 47.0885 19.3151 47.0364 19.1901 47.0125C19.1162 46.9984 18.9255 46.995 18.8521 47.0062ZM19.1057 47.4275C19.2172 47.4484 19.3016 47.4903 19.3833 47.5658C19.462 47.6378 19.5078 47.7104 19.5354 47.8063C19.5474 47.8477 19.549 47.8623 19.549 47.9334C19.549 48.0045 19.5474 48.0192 19.5354 48.0605C19.5078 48.1565 19.462 48.229 19.3833 48.3011C19.2021 48.4677 18.9375 48.4974 18.7156 48.3751C18.651 48.3401 18.5651 48.2597 18.5276 48.1993C18.4213 48.0308 18.4213 47.8346 18.5271 47.6685C18.5588 47.6188 18.6203 47.555 18.6708 47.5195C18.7937 47.4333 18.9557 47.3987 19.1057 47.4275Z" fill="#405BAE"/>
<path d="M21.8521 52.0062C21.55 52.0515 21.2937 52.2142 21.1375 52.4586C21.0843 52.5424 21.0411 52.6471 21.0177 52.7503C20.9989 52.8321 20.9942 52.9851 21.0078 53.0776C21.0562 53.4161 21.2812 53.8052 21.6588 54.2045C21.7396 54.2897 21.9281 54.467 21.9531 54.4816C21.9781 54.4957 22.0219 54.4957 22.0469 54.4816C22.0719 54.467 22.2604 54.2897 22.3412 54.2045C22.7193 53.8047 22.9438 53.4161 22.9922 53.0776C23.0058 52.9851 23.0011 52.8321 22.9823 52.7503C22.9261 52.5029 22.7735 52.2906 22.5521 52.1523C22.4511 52.0885 22.3151 52.0364 22.1901 52.0125C22.1162 51.9984 21.9255 51.995 21.8521 52.0062ZM22.1057 52.4275C22.2172 52.4484 22.3016 52.4903 22.3833 52.5658C22.462 52.6378 22.5078 52.7104 22.5354 52.8063C22.5474 52.8477 22.549 52.8623 22.549 52.9334C22.549 53.0045 22.5474 53.0192 22.5354 53.0605C22.5078 53.1565 22.462 53.229 22.3833 53.3011C22.2021 53.4677 21.9375 53.4974 21.7156 53.3751C21.651 53.3401 21.5651 53.2597 21.5276 53.1993C21.4213 53.0308 21.4213 52.8346 21.5271 52.6685C21.5588 52.6188 21.6203 52.555 21.6708 52.5195C21.7937 52.4333 21.9557 52.3987 22.1057 52.4275Z" fill="#405BAE"/>
<path d="M19.8521 51.0062C19.55 51.0515 19.2937 51.2142 19.1375 51.4586C19.0843 51.5424 19.0411 51.6471 19.0177 51.7503C18.9989 51.8321 18.9942 51.9851 19.0078 52.0776C19.0562 52.4161 19.2812 52.8052 19.6588 53.2045C19.7396 53.2897 19.9281 53.467 19.9531 53.4816C19.9781 53.4957 20.0219 53.4957 20.0469 53.4816C20.0719 53.467 20.2604 53.2897 20.3412 53.2045C20.7193 52.8047 20.9438 52.4161 20.9922 52.0776C21.0058 51.9851 21.0011 51.8321 20.9823 51.7503C20.9261 51.5029 20.7735 51.2906 20.5521 51.1523C20.4511 51.0885 20.3151 51.0364 20.1901 51.0125C20.1162 50.9984 19.9255 50.995 19.8521 51.0062ZM20.1057 51.4275C20.2172 51.4484 20.3016 51.4903 20.3833 51.5658C20.462 51.6378 20.5078 51.7104 20.5354 51.8063C20.5474 51.8477 20.549 51.8623 20.549 51.9334C20.549 52.0045 20.5474 52.0192 20.5354 52.0605C20.5078 52.1565 20.462 52.229 20.3833 52.3011C20.2021 52.4677 19.9375 52.4974 19.7156 52.3751C19.651 52.3401 19.5651 52.2597 19.5276 52.1993C19.4213 52.0308 19.4213 51.8346 19.5271 51.6685C19.5588 51.6188 19.6203 51.555 19.6708 51.5195C19.7937 51.4333 19.9557 51.3987 20.1057 51.4275Z" fill="#405BAE"/>
<path d="M21.8521 58.0067C21.55 58.052 21.2937 58.2146 21.1375 58.4591C21.0843 58.5429 21.0411 58.6476 21.0177 58.7508C20.9989 58.8326 20.9942 58.9856 21.0078 59.0781C21.0562 59.4165 21.2812 59.8056 21.6588 60.205C21.7396 60.2902 21.9281 60.4675 21.9531 60.4821C21.9781 60.4962 22.0219 60.4962 22.0469 60.4821C22.0719 60.4675 22.2604 60.2902 22.3412 60.205C22.7193 59.8052 22.9438 59.4165 22.9922 59.0781C23.0058 58.9856 23.0011 58.8326 22.9823 58.7508C22.9261 58.5034 22.7735 58.2911 22.5521 58.1528C22.4511 58.089 22.3151 58.0369 22.1901 58.013C22.1162 57.9989 21.9255 57.9955 21.8521 58.0067ZM22.1057 58.4279C22.2172 58.4489 22.3016 58.4908 22.3833 58.5662C22.462 58.6383 22.5078 58.7109 22.5354 58.8068C22.5474 58.8482 22.549 58.8628 22.549 58.9339C22.549 59.005 22.5474 59.0196 22.5354 59.061C22.5078 59.157 22.462 59.2295 22.3833 59.3016C22.2021 59.4682 21.9375 59.4979 21.7156 59.3756C21.651 59.3406 21.5651 59.2602 21.5276 59.1998C21.4213 59.0313 21.4213 58.8351 21.5271 58.669C21.5588 58.6193 21.6203 58.5555 21.6708 58.52C21.7937 58.4338 21.9557 58.3992 22.1057 58.4279Z" fill="#405BAE"/>
<path d="M23.8521 56.0062C23.55 56.0515 23.2937 56.2142 23.1375 56.4586C23.0843 56.5424 23.0411 56.6471 23.0177 56.7503C22.9989 56.8321 22.9942 56.9851 23.0078 57.0776C23.0562 57.4161 23.2812 57.8052 23.6588 58.2045C23.7396 58.2897 23.9281 58.467 23.9531 58.4816C23.9781 58.4957 24.0219 58.4957 24.0469 58.4816C24.0719 58.467 24.2604 58.2897 24.3412 58.2045C24.7193 57.8047 24.9438 57.4161 24.9922 57.0776C25.0058 56.9851 25.0011 56.8321 24.9823 56.7503C24.9261 56.5029 24.7735 56.2906 24.5521 56.1523C24.4511 56.0885 24.3151 56.0364 24.1901 56.0125C24.1162 55.9984 23.9255 55.995 23.8521 56.0062ZM24.1057 56.4275C24.2172 56.4484 24.3016 56.4903 24.3833 56.5658C24.462 56.6378 24.5078 56.7104 24.5354 56.8063C24.5474 56.8477 24.549 56.8623 24.549 56.9334C24.549 57.0045 24.5474 57.0192 24.5354 57.0605C24.5078 57.1565 24.462 57.229 24.3833 57.3011C24.2021 57.4677 23.9375 57.4974 23.7156 57.3751C23.651 57.3401 23.5651 57.2597 23.5276 57.1993C23.4213 57.0308 23.4213 56.8346 23.5271 56.6685C23.5588 56.6188 23.6203 56.555 23.6708 56.5195C23.7937 56.4333 23.9557 56.3987 24.1057 56.4275Z" fill="#405BAE"/>
<path d="M39.8521 34.0062C39.55 34.0515 39.2937 34.2142 39.1375 34.4586C39.0843 34.5424 39.0411 34.6471 39.0177 34.7503C38.9989 34.8321 38.9942 34.9851 39.0078 35.0776C39.0562 35.4161 39.2812 35.8052 39.6588 36.2045C39.7396 36.2897 39.9281 36.467 39.9531 36.4816C39.9781 36.4957 40.0219 36.4957 40.0469 36.4816C40.0719 36.467 40.2604 36.2897 40.3412 36.2045C40.7193 35.8047 40.9438 35.4161 40.9922 35.0776C41.0058 34.9851 41.0011 34.8321 40.9823 34.7503C40.9261 34.5029 40.7735 34.2906 40.5521 34.1523C40.4511 34.0885 40.3151 34.0364 40.1901 34.0125C40.1162 33.9984 39.9255 33.995 39.8521 34.0062ZM40.1057 34.4275C40.2172 34.4484 40.3016 34.4903 40.3833 34.5658C40.462 34.6378 40.5078 34.7104 40.5354 34.8063C40.5474 34.8477 40.549 34.8623 40.549 34.9334C40.549 35.0045 40.5474 35.0192 40.5354 35.0605C40.5078 35.1565 40.462 35.229 40.3833 35.3011C40.2021 35.4677 39.9375 35.4974 39.7156 35.3751C39.651 35.3401 39.5651 35.2597 39.5276 35.1993C39.4213 35.0308 39.4213 34.8346 39.5271 34.6685C39.5588 34.6188 39.6203 34.555 39.6708 34.5195C39.7937 34.4333 39.9557 34.3987 40.1057 34.4275Z" fill="#405BAE"/>
<path d="M28.8521 28.0062C28.55 28.0515 28.2937 28.2142 28.1375 28.4586C28.0843 28.5424 28.0411 28.6471 28.0177 28.7503C27.9989 28.8321 27.9942 28.9851 28.0078 29.0776C28.0562 29.4161 28.2812 29.8052 28.6588 30.2045C28.7396 30.2897 28.9281 30.467 28.9531 30.4816C28.9781 30.4957 29.0219 30.4957 29.0469 30.4816C29.0719 30.467 29.2604 30.2897 29.3412 30.2045C29.7193 29.8047 29.9438 29.4161 29.9922 29.0776C30.0058 28.9851 30.0011 28.8321 29.9823 28.7503C29.9261 28.5029 29.7735 28.2906 29.5521 28.1523C29.4511 28.0885 29.3151 28.0364 29.1901 28.0125C29.1162 27.9984 28.9255 27.995 28.8521 28.0062ZM29.1057 28.4275C29.2172 28.4484 29.3016 28.4903 29.3833 28.5658C29.462 28.6378 29.5078 28.7104 29.5354 28.8063C29.5474 28.8477 29.549 28.8623 29.549 28.9334C29.549 29.0045 29.5474 29.0192 29.5354 29.0605C29.5078 29.1565 29.462 29.229 29.3833 29.3011C29.2021 29.4677 28.9375 29.4974 28.7156 29.3751C28.651 29.3401 28.5651 29.2597 28.5276 29.1993C28.4213 29.0308 28.4213 28.8346 28.5271 28.6685C28.5588 28.6188 28.6203 28.555 28.6708 28.5195C28.7937 28.4333 28.9557 28.3987 29.1057 28.4275Z" fill="#405BAE"/>
<path d="M29.8521 35.0067C29.55 35.052 29.2937 35.2146 29.1375 35.4591C29.0843 35.5429 29.0411 35.6476 29.0177 35.7508C28.9989 35.8326 28.9942 35.9856 29.0078 36.0781C29.0562 36.4165 29.2812 36.8056 29.6588 37.205C29.7396 37.2902 29.9281 37.4675 29.9531 37.4821C29.9781 37.4962 30.0219 37.4962 30.0469 37.4821C30.0719 37.4675 30.2604 37.2902 30.3412 37.205C30.7193 36.8052 30.9438 36.4165 30.9922 36.0781C31.0058 35.9856 31.0011 35.8326 30.9823 35.7508C30.9261 35.5034 30.7735 35.2911 30.5521 35.1528C30.4511 35.089 30.3151 35.0369 30.1901 35.013C30.1162 34.9989 29.9255 34.9955 29.8521 35.0067ZM30.1057 35.4279C30.2172 35.4489 30.3016 35.4908 30.3833 35.5662C30.462 35.6383 30.5078 35.7109 30.5354 35.8068C30.5474 35.8482 30.549 35.8628 30.549 35.9339C30.549 36.005 30.5474 36.0196 30.5354 36.061C30.5078 36.157 30.462 36.2295 30.3833 36.3016C30.2021 36.4682 29.9375 36.4979 29.7156 36.3756C29.651 36.3406 29.5651 36.2602 29.5276 36.1998C29.4213 36.0313 29.4213 35.8351 29.5271 35.669C29.5588 35.6193 29.6203 35.5555 29.6708 35.52C29.7937 35.4338 29.9557 35.3992 30.1057 35.4279Z" fill="#405BAE"/>
</svg>
