<svg width="68" height="64" viewBox="0 0 68 64" fill="none" xmlns="http://www.w3.org/2000/svg">
<path d="M33.203 0.248812C32.9507 0.48475 32.9374 0.658599 32.9374 2.84413V5.20352L33.2827 5.45187C33.4819 5.60089 33.8007 5.71265 33.9999 5.71265C34.1991 5.71265 34.5178 5.60089 34.7171 5.45187L35.0624 5.20352V2.84413C35.0624 0.658599 35.0491 0.48475 34.7967 0.248812C34.6241 0.0873804 34.3585 0.000455379 33.9999 0.000455379C33.6413 0.000455379 33.3757 0.0873804 33.203 0.248812Z" fill="#405CAF"/>
<path d="M23.1492 5.19111C22.5648 5.27803 22.1531 6.06035 22.3922 6.61915C22.432 6.73091 23.5344 7.71192 24.8492 8.81711C27.5718 11.102 27.8507 11.2386 28.5546 10.5804C28.9796 10.1831 29.0461 9.79811 28.7804 9.36349C28.5148 8.91645 24.0656 5.2532 23.7469 5.20352C23.5742 5.16627 23.3086 5.16627 23.1492 5.19111Z" fill="#405CAF"/>
<path d="M44.2655 5.19037C43.8803 5.24005 39.4444 8.97781 39.1921 9.4621C38.953 9.90914 39.0991 10.3686 39.6038 10.7163C40.2413 11.1633 40.6397 10.9398 43.203 8.77912C44.4912 7.69877 45.567 6.73018 45.6069 6.61842C45.9389 5.81127 45.235 5.05378 44.2655 5.19037Z" fill="#405CAF"/>
<path d="M9.66871 8.02215C9.20387 8.24567 9.01794 8.60579 7.9156 11.375L7.01247 13.6226L5.39217 13.7095C0.531248 13.9579 0.903122 13.9082 0.424998 14.3552C0.066406 14.6905 0 14.8395 0 15.3362C0 15.6467 0.0531248 16.0068 0.119531 16.1186C0.185937 16.2303 1.28828 17.112 2.54999 18.0682L4.86092 19.7942L4.09061 22.4765C3.57264 24.2398 3.33358 25.2705 3.38671 25.5313C3.42655 25.7424 3.63905 26.0776 3.86483 26.2763C4.19686 26.5744 4.3828 26.6364 4.90076 26.6364C5.44529 26.6364 5.68435 26.5495 6.52107 26.028C7.0656 25.6927 8.16794 25.0097 8.99137 24.5006L10.4789 23.6065L12.4445 24.811C15.7117 26.8351 15.8976 26.9096 16.7343 26.5123C17.2788 26.2515 17.5312 25.8541 17.5312 25.2705C17.5312 24.9973 17.1992 23.6562 16.8007 22.2902C16.2296 20.3406 16.1101 19.7818 16.2429 19.6701C16.3226 19.5955 17.3054 18.8629 18.4077 18.0309C19.5101 17.2113 20.546 16.3793 20.7054 16.1931C21.2366 15.5598 20.9046 14.3056 20.121 14.0324C19.9484 13.9703 18.5007 13.8585 16.907 13.784C15.3132 13.6971 13.9718 13.5977 13.932 13.5605C13.8921 13.5108 13.4539 12.4677 12.9625 11.2384C12.471 10.009 11.9796 8.82931 11.8734 8.63062C11.5148 7.89797 10.4656 7.61236 9.66871 8.02215ZM11.2757 13.101C11.6609 14.0572 12.0593 14.9761 12.1789 15.1251C12.471 15.5598 13.1484 15.7709 14.3039 15.7833C14.8749 15.7957 15.8312 15.8329 16.4288 15.8702L17.5179 15.9571L15.7382 17.2858C13.414 19.0243 13.4539 18.9126 14.1976 21.4955C14.5031 22.551 14.782 23.4823 14.8085 23.5568C14.8749 23.7307 14.596 23.5817 12.4312 22.2405C10.4257 20.9988 10.4789 20.9988 7.47732 22.8738C6.72029 23.3457 6.10935 23.6934 6.10935 23.6562C6.10935 23.6189 6.34841 22.7869 6.6406 21.7935C7.19841 19.9184 7.2781 19.2478 6.99919 18.7884C6.90622 18.6518 6.06951 17.944 5.11326 17.2362C3.87811 16.3172 3.46639 15.9447 3.65233 15.9323C3.79842 15.9075 4.84764 15.8454 5.97654 15.7957C7.3445 15.7212 8.14138 15.6343 8.34059 15.5101C8.73903 15.2866 8.96481 14.8644 9.77496 12.8278C10.1336 11.9338 10.4656 11.2259 10.5054 11.2756C10.5453 11.3253 10.8906 12.1449 11.2757 13.101Z" fill="#405CAF"/>
<path d="M33.1233 8.05928C32.8311 8.23313 32.6186 8.50632 32.4327 8.96578C32.2866 9.3259 31.8084 10.5056 31.3569 11.5859C30.9186 12.6787 30.5467 13.5728 30.5202 13.5976C30.4803 13.6349 25.4069 13.9081 24.7561 13.9081C24.5436 13.9081 24.2382 14.0695 23.9593 14.3303C23.5874 14.678 23.5077 14.8394 23.5077 15.2864C23.521 15.5845 23.5874 15.957 23.6803 16.106C23.7733 16.255 24.8624 17.1367 26.0975 18.0804C27.346 19.0118 28.3553 19.8438 28.342 19.9183C28.3288 19.9928 28.01 21.1104 27.6249 22.4143C27.253 23.7057 26.9342 24.9848 26.9342 25.2331C26.921 26.1024 27.7577 26.7977 28.6608 26.6487C28.9264 26.6115 30.0952 25.9906 31.5561 25.0965L33.9998 23.6064L36.4436 25.0965C37.9045 25.9906 39.0733 26.6115 39.3389 26.6487C40.242 26.7977 41.0787 26.1024 41.0654 25.2331C41.0654 24.9848 40.7467 23.7057 40.3748 22.4143C39.9897 21.1104 39.6709 19.9928 39.6576 19.9183C39.6444 19.8438 40.6537 19.0118 41.9022 18.0804C43.1373 17.1491 44.2264 16.255 44.3193 16.106C44.7178 15.4355 44.4123 14.3924 43.7084 14.0322C43.5756 13.9702 42.1279 13.8584 40.4943 13.7839C38.8608 13.697 37.5061 13.6225 37.4795 13.5976C37.453 13.5852 36.9881 12.4552 36.4436 11.1141C35.8991 9.76052 35.3944 8.55599 35.3147 8.43181C34.9826 7.84818 33.8272 7.64949 33.1233 8.05928ZM34.8764 13.2499C35.4741 14.7401 35.7397 15.2492 36.0186 15.4479C36.3373 15.659 36.6959 15.7086 38.3428 15.7956C39.4319 15.8452 40.4811 15.9073 40.6936 15.9198C41.0389 15.957 40.9061 16.0812 39.2592 17.2981C36.9483 19.0242 37.0014 18.9 37.7186 21.4333C38.0108 22.4515 38.2897 23.3829 38.3295 23.507C38.3694 23.6312 37.6655 23.2711 36.4436 22.5384C34.8764 21.5823 34.3983 21.3588 33.9998 21.3588C33.6014 21.3588 33.1233 21.5823 31.5561 22.5384C30.3342 23.2711 29.6303 23.6312 29.6702 23.507C29.71 23.3829 29.9889 22.4515 30.2811 21.4333C30.9983 18.9 31.0514 19.0242 28.7405 17.2981C27.0936 16.0812 26.9608 15.957 27.3061 15.9198C27.5186 15.9073 28.5678 15.8452 29.6569 15.7956C31.3038 15.7086 31.6623 15.659 31.9811 15.4479C32.26 15.2492 32.5256 14.7401 33.1233 13.2499C33.5616 12.1696 33.9467 11.3003 33.9998 11.3003C34.053 11.3003 34.4381 12.1696 34.8764 13.2499Z" fill="#405CAF"/>
<path d="M56.6841 8.04699C56.2325 8.29534 56.1661 8.43194 55.0372 11.2384C54.5458 12.4677 54.1075 13.5108 54.0677 13.5605C54.0278 13.5977 52.6864 13.6971 51.0794 13.784C49.4857 13.8585 48.038 13.9827 47.8654 14.0448C47.0951 14.3056 46.763 15.5722 47.2943 16.1931C47.4536 16.3793 48.4896 17.2113 49.5919 18.0309C50.6943 18.8629 51.6771 19.5955 51.7568 19.6701C51.8896 19.7818 51.77 20.3406 51.1989 22.2902C50.8005 23.6562 50.4685 24.9973 50.4685 25.2705C50.4685 25.8541 50.7208 26.2515 51.2654 26.5123C52.1021 26.9096 52.288 26.8351 55.5552 24.811L57.5208 23.6065L59.0083 24.5006C59.8317 25.0097 60.9341 25.6927 61.4786 26.028C62.3153 26.5495 62.5544 26.6364 63.0989 26.6364C63.6169 26.6364 63.8028 26.5744 64.1348 26.2763C64.3606 26.0776 64.5731 25.7424 64.613 25.5313C64.6661 25.2705 64.427 24.2398 63.9223 22.4765L63.1387 19.8066L65.3434 18.1551C66.552 17.2486 67.6411 16.3918 67.7739 16.2427C67.92 16.0813 67.9997 15.7833 67.9997 15.3735C67.9997 14.8395 67.9333 14.6905 67.5614 14.3428C67.0833 13.8958 67.1762 13.9082 62.7403 13.7095L61.0005 13.635L60.0974 11.375C59.5927 10.1456 59.0747 8.91623 58.9419 8.66788C58.5302 7.87314 57.4677 7.58753 56.6841 8.04699ZM59.2872 15.2121C59.5528 15.597 60.2302 15.7709 61.5583 15.7833C62.1427 15.7957 63.0723 15.8329 63.6169 15.8826L64.5997 15.9571L62.8864 17.2362C61.9302 17.944 61.0934 18.6518 61.0005 18.7884C60.7216 19.2478 60.8013 19.9184 61.3591 21.7935C61.6513 22.7869 61.8903 23.6189 61.8903 23.6562C61.8903 23.6934 61.1864 23.2836 60.3364 22.7497C57.5474 20.9988 57.5739 20.9988 55.5685 22.2405C54.7849 22.7248 53.9216 23.2464 53.6427 23.4202L53.138 23.7058L53.3239 23.1222C53.4169 22.7993 53.6958 21.868 53.9216 21.0608C54.5192 18.9622 54.5325 18.9871 52.2614 17.2858L50.4818 15.9571L51.5708 15.8702C52.1685 15.8329 53.1247 15.7957 53.6958 15.7833C54.8513 15.7709 55.5286 15.5598 55.8208 15.1251C55.9802 14.9016 56.6442 13.337 57.4544 11.3005C57.4942 11.2011 57.8794 11.9586 58.3044 13.0141C58.7294 14.0572 59.1809 15.0506 59.2872 15.2121Z" fill="#405CAF"/>
<path d="M32.1401 29.0085C30.0549 29.4183 27.744 30.9705 26.655 32.6717C25.1675 35.0311 25.0346 38.0114 26.3229 40.408C26.8542 41.4139 27.6776 42.4073 28.4612 42.9909C29.0057 43.3883 29.0721 43.4752 28.8596 43.5373C25.951 44.4935 23.5472 46.083 21.555 48.3554L21.1433 48.8397L20.4261 48.1568C19.4433 47.2254 18.4472 46.5424 17.1589 45.9464L16.0698 45.4373L16.7073 44.7543C17.5042 43.9223 18.0222 42.9661 18.2745 41.8733C18.5003 40.8178 18.5003 40.3832 18.2612 39.3029C17.9956 38.1356 17.5175 37.2539 16.6542 36.3847C15.2464 34.969 13.7988 34.373 11.7402 34.373C8.6058 34.3606 6.04253 36.186 5.24566 39.0048C4.99332 39.8492 4.99332 41.3518 5.23238 42.1714C5.48472 43.053 6.17534 44.2327 6.8394 44.9033L7.39721 45.4621L6.57378 45.8098C3.69176 47.0391 1.23474 49.5972 0.212084 52.4409C-0.093384 53.2977 -0.0668216 54.5147 0.27849 55.1976C0.637082 55.893 1.65973 56.7747 2.36364 56.9734C2.73551 57.0852 5.0066 57.1224 10.5183 57.1224H18.1683L18.2214 58.5877C18.2745 59.904 18.3144 60.1275 18.6862 60.8726C19.2042 61.8908 20.0144 62.6732 21.0636 63.1575L21.8472 63.5176H33.9995H46.1518L46.9088 63.1699C47.958 62.6856 48.808 61.8784 49.3127 60.8726C49.6846 60.1275 49.7244 59.904 49.7775 58.5877L49.8306 57.1224H57.4806C62.9923 57.1224 65.2634 57.0852 65.6353 56.9734C66.3392 56.7747 67.3618 55.893 67.7204 55.1976C68.0657 54.5147 68.0923 53.2977 67.7868 52.4409C66.7642 49.5972 64.3072 47.0391 61.4251 45.8098L60.6017 45.4621L61.1595 44.9033C62.2884 43.7733 62.9525 42.1714 62.9525 40.6191C62.9525 38.8682 62.3283 37.4153 61.04 36.1984C58.8619 34.1246 55.2892 33.7273 52.6994 35.2795C51.8494 35.801 50.7072 36.9807 50.2822 37.7755C49.9103 38.4833 49.5385 39.8989 49.5385 40.6067C49.5385 41.9851 50.2822 43.736 51.3049 44.7791L51.9424 45.4248L50.84 45.9464C49.5517 46.5424 48.5557 47.2254 47.5728 48.1568L46.8557 48.8397L46.4439 48.3554C44.4518 46.083 42.0479 44.4935 39.1393 43.5373C38.9268 43.4752 38.9932 43.3883 39.5377 42.9909C40.7463 42.0844 41.8486 40.4453 42.3135 38.8558C42.6455 37.6885 42.6057 35.7141 42.2338 34.5841C41.769 33.1809 41.1979 32.3116 40.0424 31.2189C39.1924 30.4241 38.7541 30.1013 37.851 29.6915C36.0049 28.8471 34.0791 28.6111 32.1401 29.0085ZM35.2213 31.0574C37.1205 31.43 38.8205 32.6717 39.644 34.2861C40.401 35.8134 40.494 37.3533 39.9229 38.8682C39.2455 40.6191 37.3729 42.1714 35.4205 42.5936C34.7034 42.7426 33.2956 42.7426 32.5784 42.5936C30.626 42.1714 28.7534 40.6191 28.076 38.8682C26.4292 34.5841 30.5065 30.1385 35.2213 31.0574ZM13.6261 36.8938C15.512 37.7382 16.5081 39.663 16.0167 41.4884C15.4855 43.3883 13.998 44.568 11.9527 44.6798C10.5581 44.7543 9.62845 44.4066 8.61908 43.4752C7.63627 42.5563 7.2644 41.6622 7.33081 40.4205C7.50346 37.4029 10.7441 35.5899 13.6261 36.8938ZM57.8392 36.7199C58.7955 37.0056 60.0306 38.1977 60.429 39.1787C61.04 40.7309 60.5619 42.5066 59.2205 43.6367C57.215 45.3255 54.147 44.9778 52.6463 42.8916C51.6635 41.5132 51.5838 40.0355 52.4205 38.595C53.483 36.782 55.6345 36.037 57.8392 36.7199ZM35.5268 44.9654C41.1049 45.6111 45.6736 49.2868 47.1478 54.3284C47.5197 55.5702 47.6791 58.6746 47.4135 59.5315C47.2143 60.2269 46.6166 60.8974 45.9127 61.2575L45.3549 61.5307H33.9995H22.644L22.0862 61.2575C21.3823 60.8974 20.7847 60.2269 20.5854 59.5315C20.3198 58.6746 20.4792 55.5702 20.8511 54.3284C21.6479 51.5965 23.5339 49.0136 25.9643 47.3372C27.6643 46.1575 30.201 45.2137 32.3393 44.9654C33.6807 44.8164 34.1854 44.8164 35.5268 44.9654ZM14.0378 47.1261C15.8441 47.511 17.7167 48.5665 19.0448 49.9325C19.4565 50.3671 19.7886 50.7521 19.7886 50.8017C19.7886 50.8514 19.6026 51.2985 19.3769 51.7952C19.1511 52.2919 18.819 53.2108 18.6597 53.8317L18.3542 54.9493L10.691 54.9865L3.04098 55.0114L2.62926 54.6388C2.25739 54.2911 2.23083 54.2042 2.28395 53.633C2.43004 52.2422 4.09019 49.8952 5.69722 48.8025C8.26049 47.0516 11.0628 46.4928 14.0378 47.1261ZM58.6361 47.1509C61.704 47.8711 64.2275 49.9077 65.4228 52.6147C65.8611 53.6206 65.8478 54.1918 65.3564 54.6513L64.9579 55.0114L57.308 54.9865L49.6447 54.9493L49.3392 53.8317C49.1666 53.2108 48.8478 52.3043 48.6221 51.7952C48.3963 51.286 48.2103 50.839 48.2103 50.7893C48.2103 50.7521 48.5424 50.3671 48.9541 49.9325C50.5744 48.2561 52.7791 47.2006 55.2494 46.9026C55.9931 46.8032 57.7728 46.9398 58.6361 47.1509Z" fill="#405CAF"/>
</svg>
