<svg width="189" height="60" viewBox="0 0 189 60" fill="none" xmlns="http://www.w3.org/2000/svg">
<path d="M33.019 32.25C26.7897 35.024 25.4428 38.3969 25.5432 39.9624C24.1932 37.6769 25.3297 35.0363 26.1498 33.7782C28.0202 30.9109 31.0936 30.7281 32.5538 30.659C35.3353 30.4219 34.0752 31.5656 33.019 32.25Z" fill="#2A4596"/>
<path d="M30.1196 15.9286C32.6913 15.3736 36.0413 16.4547 38.2988 17.5716C40.8568 18.8375 43.0754 20.7493 44.5602 23.1143C47.525 27.8237 47.5017 34.0976 44.5578 38.8263C43.1296 41.1231 41.0407 43.0631 38.5274 44.2254C36.014 45.3878 33.0573 45.7261 30.3643 45.0171C28.2443 44.461 26.0829 42.9979 26.5109 40.5286C26.6478 39.7333 27.0634 38.9981 27.6177 38.3977C29.286 36.5881 31.7778 36.0149 33.9228 34.9496C35.5831 34.1228 36.8814 32.7424 37.6085 31.0933C38.1806 29.7964 38.5018 28.3682 38.5286 26.97C38.5835 24.6709 37.7095 22.4287 36.3074 20.5862C35.5514 19.5943 34.6493 18.7145 33.6403 17.9525C32.5398 17.1245 31.2682 16.6449 30.1125 15.9303L30.1196 15.9286Z" fill="url(#paint0_linear_820_498)"/>
<path d="M31.552 47.24C29.005 47.8908 25.6134 46.9357 23.312 45.9041C20.7042 44.7348 18.4092 42.9073 16.8288 40.5996C13.6739 36.0046 13.4408 29.7346 16.1892 24.8995C17.5225 22.5511 19.5305 20.5345 21.9944 19.2791C24.4583 18.0237 27.399 17.5751 30.1189 18.1829C32.2601 18.6594 34.4795 20.0406 34.1528 22.5239C34.0485 23.3238 33.6632 24.074 33.1339 24.6946C31.5408 26.5652 29.0743 27.2311 26.9746 28.3758C25.3493 29.264 24.1084 30.6919 23.4492 32.3668C22.9305 33.6841 22.668 35.1232 22.6983 36.5214C22.7374 38.8208 23.7024 41.0286 25.1787 42.8173C25.9747 43.7802 26.912 44.6256 27.9513 45.3493C29.0849 46.1356 30.3751 46.5672 31.5591 47.2382L31.552 47.24Z" fill="url(#paint1_linear_820_498)"/>
<path d="M20.0993 26.3575C24.6528 21.2849 28.0652 20.8084 29.4017 21.2503C27.8611 19.5053 25.1616 19.9533 23.7803 20.4214C20.632 21.4895 19.4236 24.2575 18.8651 25.5765C17.7087 28.0655 19.1399 27.1697 20.0993 26.3575Z" fill="white" stroke="#D9D9D9" stroke-width="0.120567"/>
<path d="M55.7031 23.5449H59.1426C60.877 23.5449 62.0723 24.6992 62.0723 26.4395C62.0723 28.1738 60.8359 29.334 59.0547 29.334H57.4727V32H55.7031V23.5449ZM57.4727 24.9453V27.9512H58.668C59.6816 27.9512 60.2734 27.4121 60.2734 26.4453C60.2734 25.4844 59.6875 24.9453 58.6738 24.9453H57.4727ZM63.4637 23.5449H66.6922C69.2293 23.5449 70.7235 25.0566 70.7235 27.7402C70.7235 30.4238 69.2293 32 66.6922 32H63.4637V23.5449ZM65.2332 25.0039V30.5352H66.4813C68.0633 30.5352 68.9188 29.5742 68.9188 27.7461C68.9188 25.9766 68.0399 25.0039 66.4813 25.0039H65.2332ZM76.9782 26.2227L75.3727 32H73.7028L71.4645 23.5449H73.2985L74.6286 29.668H74.6755L76.2575 23.5449H77.7516L79.3337 29.668H79.3805L80.7165 23.5449H82.5505L80.3063 32H78.6364L77.0309 26.2227H76.9782ZM87.6392 32H85.8697V25.0039H83.4263V23.5449H90.0884V25.0039H87.6392V32ZM97.8693 32.1465C95.4084 32.1465 93.8674 30.5 93.8674 27.7695C93.8674 25.0449 95.4201 23.3984 97.8693 23.3984C99.9025 23.3984 101.449 24.6875 101.584 26.5801H99.8615C99.6975 25.543 98.9006 24.8633 97.8693 24.8633C96.5334 24.8633 95.6721 25.9824 95.6721 27.7637C95.6721 29.5684 96.5217 30.6816 97.8752 30.6816C98.924 30.6816 99.6799 30.0664 99.8674 29.0645H101.59C101.391 30.9512 99.9436 32.1465 97.8693 32.1465ZM110.376 32H108.606V28.4375H104.798V32H103.028V23.5449H104.798V26.9785H108.606V23.5449H110.376V32ZM117.726 30.5352V32H112.125V23.5449H117.726V25.0039H113.894V27.043H117.51V28.4023H113.894V30.5352H117.726ZM128.3 32H126.723V26.293H126.676L124.38 31.918H123.266L120.969 26.293H120.923V32H119.346V23.5449H121.397L123.8 29.5391H123.846L126.249 23.5449H128.3V32ZM131.818 32H130.048V23.5449H131.818V32ZM137.305 32.1465C134.844 32.1465 133.303 30.5 133.303 27.7695C133.303 25.0449 134.856 23.3984 137.305 23.3984C139.338 23.3984 140.885 24.6875 141.02 26.5801H139.297C139.133 25.543 138.336 24.8633 137.305 24.8633C135.969 24.8633 135.108 25.9824 135.108 27.7637C135.108 29.5684 135.957 30.6816 137.311 30.6816C138.36 30.6816 139.116 30.0664 139.303 29.0645H141.026C140.827 30.9512 139.379 32.1465 137.305 32.1465ZM147.708 32L147.064 29.9492H144.093L143.448 32H141.632L144.568 23.5449H146.648L149.589 32H147.708ZM145.558 25.1621L144.474 28.625H146.683L145.599 25.1621H145.558ZM156.266 30.5352V32H150.799V23.5449H152.568V30.5352H156.266ZM157.341 29.5918H159.046C159.128 30.2891 159.854 30.7461 160.792 30.7461C161.735 30.7461 162.38 30.2949 162.38 29.6738C162.38 29.123 161.976 28.8184 160.956 28.5898L159.854 28.3496C158.296 28.0156 157.528 27.2246 157.528 25.9883C157.528 24.4297 158.876 23.3984 160.763 23.3984C162.731 23.3984 163.968 24.4121 163.997 25.9414H162.339C162.28 25.2266 161.653 24.793 160.768 24.793C159.895 24.793 159.31 25.209 159.31 25.8359C159.31 26.3574 159.72 26.6504 160.692 26.873L161.718 27.0898C163.411 27.4531 164.149 28.1797 164.149 29.4688C164.149 31.1094 162.819 32.1465 160.722 32.1465C158.688 32.1465 157.393 31.1797 157.341 29.5918ZM173.77 30.5352V32H168.303V23.5449H170.073V30.5352H173.77ZM180.628 30.5352V32H175.162V23.5449H176.931V30.5352H180.628ZM182.02 23.5449H185.459C187.194 23.5449 188.389 24.6992 188.389 26.4395C188.389 28.1738 187.153 29.334 185.371 29.334H183.789V32H182.02V23.5449ZM183.789 24.9453V27.9512H184.985C185.998 27.9512 186.59 27.4121 186.59 26.4453C186.59 25.4844 186.004 24.9453 184.991 24.9453H183.789Z" fill="#2A4596"/>
<path d="M72.8885 42.3618H72.1854V39.936L70.1854 36.7251H70.9862L72.5252 39.2563H72.5487L74.0877 36.7251H74.8885L72.8885 39.936V42.3618ZM76.5403 42.4321C75.4153 42.4321 74.6575 41.6235 74.6575 40.3306C74.6575 39.0337 75.4153 38.229 76.5403 38.229C77.6614 38.229 78.4192 39.0337 78.4192 40.3306C78.4192 41.6235 77.6614 42.4321 76.5403 42.4321ZM76.5403 41.8345C77.259 41.8345 77.7278 41.2876 77.7278 40.3306C77.7278 39.3735 77.259 38.8267 76.5403 38.8267C75.8215 38.8267 75.3489 39.3735 75.3489 40.3306C75.3489 41.2876 75.8215 41.8345 76.5403 41.8345ZM82.6139 38.2993V42.3618H81.9694V41.7017H81.9538C81.7116 42.1704 81.2897 42.4321 80.6647 42.4321C79.778 42.4321 79.2585 41.8579 79.2585 40.936V38.2993H79.9381V40.8149C79.9381 41.4751 80.2467 41.8306 80.8756 41.8306C81.5358 41.8306 81.9342 41.3774 81.9342 40.686V38.2993H82.6139ZM83.668 42.3618V38.2993H84.3087V38.9634H84.3243C84.4571 38.5142 84.8321 38.229 85.3087 38.229C85.4259 38.229 85.5274 38.2485 85.5821 38.2563V38.9165C85.5274 38.897 85.3829 38.8774 85.2188 38.8774C84.6915 38.8774 84.3477 39.2563 84.3477 39.8306V42.3618H83.668ZM88.9286 36.7251V40.3384C88.9286 41.1899 89.4872 41.8071 90.4638 41.8071C91.4404 41.8071 91.9989 41.1899 91.9989 40.3384V36.7251H92.7021V40.3853C92.7021 41.5884 91.8622 42.4556 90.4638 42.4556C89.0654 42.4556 88.2255 41.5884 88.2255 40.3853V36.7251H88.9286ZM93.8968 42.3618V36.7251H94.5765V42.3618H93.8968ZM95.8845 37.3188H96.5642V38.2993H97.3533V38.8579H96.5642V41.272C96.5642 41.6431 96.7205 41.811 97.0681 41.811C97.1463 41.811 97.3025 41.7993 97.3494 41.7915V42.3618C97.2673 42.3813 97.0798 42.3931 96.9197 42.3931C96.1736 42.3931 95.8845 42.0884 95.8845 41.3071V38.8579H95.2791V38.2993H95.8845V37.3188ZM98.2863 42.3618V38.2993H98.966V42.3618H98.2863ZM98.6262 37.6157C98.3957 37.6157 98.2043 37.4243 98.2043 37.1938C98.2043 36.9595 98.3957 36.772 98.6262 36.772C98.8605 36.772 99.0519 36.9595 99.0519 37.1938C99.0519 37.4243 98.8605 37.6157 98.6262 37.6157ZM100.055 42.3618V38.2993H100.696V38.9478H100.712C100.903 38.5181 101.317 38.229 101.864 38.229C102.419 38.229 102.829 38.5103 103.004 39.0024H103.02C103.247 38.5181 103.723 38.229 104.294 38.229C105.098 38.229 105.618 38.7524 105.618 39.5571V42.3618H104.938V39.7134C104.938 39.1587 104.629 38.8306 104.094 38.8306C103.555 38.8306 103.176 39.229 103.176 39.7798V42.3618H102.497V39.6392C102.497 39.1509 102.169 38.8306 101.665 38.8306C101.126 38.8306 100.735 39.2524 100.735 39.8149V42.3618H100.055ZM107.996 41.854C108.637 41.854 109.129 41.4048 109.129 40.8188V40.4868L108.043 40.5532C107.496 40.5884 107.184 40.8306 107.184 41.2134C107.184 41.6001 107.508 41.854 107.996 41.854ZM107.844 42.4321C107.035 42.4321 106.492 41.9438 106.492 41.2134C106.492 40.5181 107.027 40.0806 107.965 40.0259L109.129 39.9595V39.6196C109.129 39.1235 108.801 38.8267 108.238 38.8267C107.715 38.8267 107.387 39.0728 107.301 39.4712H106.645C106.691 38.7681 107.293 38.229 108.254 38.229C109.207 38.229 109.809 38.7446 109.809 39.5532V42.3618H109.164V41.6626H109.148C108.906 42.1274 108.391 42.4321 107.844 42.4321ZM111.062 37.3188H111.742V38.2993H112.531V38.8579H111.742V41.272C111.742 41.6431 111.898 41.811 112.246 41.811C112.324 41.811 112.48 41.7993 112.527 41.7915V42.3618C112.445 42.3813 112.257 42.3931 112.097 42.3931C111.351 42.3931 111.062 42.0884 111.062 41.3071V38.8579H110.456V38.2993H111.062V37.3188ZM114.94 38.8188C114.304 38.8188 113.858 39.3071 113.815 39.9829H116.022C116.007 39.3032 115.581 38.8188 114.94 38.8188ZM116.007 41.1978H116.675C116.557 41.9087 115.87 42.4321 114.983 42.4321C113.819 42.4321 113.112 41.6235 113.112 40.3462C113.112 39.0845 113.831 38.229 114.952 38.229C116.05 38.229 116.725 39.0259 116.725 40.2563V40.5142H113.811V40.5532C113.811 41.3306 114.268 41.8423 114.999 41.8423C115.515 41.8423 115.893 41.5806 116.007 41.1978ZM120.205 36.7251V40.3384C120.205 41.1899 120.763 41.8071 121.74 41.8071C122.717 41.8071 123.275 41.1899 123.275 40.3384V36.7251H123.978V40.3853C123.978 41.5884 123.138 42.4556 121.74 42.4556C120.342 42.4556 119.502 41.5884 119.502 40.3853V36.7251H120.205ZM125.357 37.3188H126.036V38.2993H126.825V38.8579H126.036V41.272C126.036 41.6431 126.193 41.811 126.54 41.811C126.618 41.811 126.775 41.7993 126.821 41.7915V42.3618C126.739 42.3813 126.552 42.3931 126.392 42.3931C125.646 42.3931 125.357 42.0884 125.357 41.3071V38.8579H124.751V38.2993H125.357V37.3188ZM127.758 42.3618V38.2993H128.438V42.3618H127.758ZM128.098 37.6157C127.868 37.6157 127.676 37.4243 127.676 37.1938C127.676 36.9595 127.868 36.772 128.098 36.772C128.333 36.772 128.524 36.9595 128.524 37.1938C128.524 37.4243 128.333 37.6157 128.098 37.6157ZM129.562 42.3618V36.7251H130.242V42.3618H129.562ZM131.367 42.3618V38.2993H132.046V42.3618H131.367ZM131.706 37.6157C131.476 37.6157 131.285 37.4243 131.285 37.1938C131.285 36.9595 131.476 36.772 131.706 36.772C131.941 36.772 132.132 36.9595 132.132 37.1938C132.132 37.4243 131.941 37.6157 131.706 37.6157ZM133.354 37.3188H134.034V38.2993H134.823V38.8579H134.034V41.272C134.034 41.6431 134.19 41.811 134.538 41.811C134.616 41.811 134.772 41.7993 134.819 41.7915V42.3618C134.737 42.3813 134.55 42.3931 134.389 42.3931C133.643 42.3931 133.354 42.0884 133.354 41.3071V38.8579H132.749V38.2993H133.354V37.3188ZM136.057 43.8813C135.975 43.8813 135.838 43.8735 135.764 43.8579V43.2876C135.838 43.3032 135.944 43.3071 136.03 43.3071C136.408 43.3071 136.619 43.1235 136.776 42.6509L136.869 42.3657L135.369 38.2993H136.096L137.221 41.6821H137.233L138.358 38.2993H139.072L137.475 42.647C137.127 43.5962 136.791 43.8813 136.057 43.8813ZM141.7 36.7251H143.595C145.267 36.7251 146.255 37.7681 146.255 39.5415C146.255 41.3188 145.271 42.3618 143.595 42.3618H141.7V36.7251ZM142.403 37.3579V41.729H143.548C144.825 41.729 145.536 40.9478 145.536 39.5493C145.536 38.1392 144.829 37.3579 143.548 37.3579H142.403ZM148.879 42.4321C147.754 42.4321 146.997 41.6235 146.997 40.3306C146.997 39.0337 147.754 38.229 148.879 38.229C150 38.229 150.758 39.0337 150.758 40.3306C150.758 41.6235 150 42.4321 148.879 42.4321ZM148.879 41.8345C149.598 41.8345 150.067 41.2876 150.067 40.3306C150.067 39.3735 149.598 38.8267 148.879 38.8267C148.161 38.8267 147.688 39.3735 147.688 40.3306C147.688 41.2876 148.161 41.8345 148.879 41.8345ZM154.992 39.6313H154.328C154.23 39.1899 153.887 38.8267 153.289 38.8267C152.586 38.8267 152.109 39.4087 152.109 40.3306C152.109 41.2759 152.594 41.8345 153.297 41.8345C153.851 41.8345 154.215 41.5415 154.332 41.0532H155C154.894 41.8618 154.215 42.4321 153.293 42.4321C152.168 42.4321 151.418 41.6392 151.418 40.3306C151.418 39.0493 152.164 38.229 153.285 38.229C154.301 38.229 154.906 38.9009 154.992 39.6313ZM156.015 37.3188H156.695V38.2993H157.484V38.8579H156.695V41.272C156.695 41.6431 156.851 41.811 157.199 41.811C157.277 41.811 157.433 41.7993 157.48 41.7915V42.3618C157.398 42.3813 157.21 42.3931 157.05 42.3931C156.304 42.3931 156.015 42.0884 156.015 41.3071V38.8579H155.41V38.2993H156.015V37.3188ZM159.948 42.4321C158.823 42.4321 158.065 41.6235 158.065 40.3306C158.065 39.0337 158.823 38.229 159.948 38.229C161.069 38.229 161.827 39.0337 161.827 40.3306C161.827 41.6235 161.069 42.4321 159.948 42.4321ZM159.948 41.8345C160.667 41.8345 161.136 41.2876 161.136 40.3306C161.136 39.3735 160.667 38.8267 159.948 38.8267C159.229 38.8267 158.757 39.3735 158.757 40.3306C158.757 41.2876 159.229 41.8345 159.948 41.8345ZM162.686 42.3618V38.2993H163.326V38.9634H163.342C163.475 38.5142 163.85 38.229 164.326 38.229C164.444 38.229 164.545 38.2485 164.6 38.2563V38.9165C164.545 38.897 164.401 38.8774 164.237 38.8774C163.709 38.8774 163.365 39.2563 163.365 39.8306V42.3618H162.686Z" fill="#2C2C2E"/>
<defs>
<linearGradient id="paint0_linear_820_498" x1="31.7711" y1="15.5583" x2="38.2768" y2="44.5706" gradientUnits="userSpaceOnUse">
<stop stop-color="#2A4596"/>
<stop offset="1" stop-color="#4460B4"/>
</linearGradient>
<linearGradient id="paint1_linear_820_498" x1="25.6933" y1="37.4522" x2="21.9919" y2="19.0088" gradientUnits="userSpaceOnUse">
<stop stop-color="#2A4596"/>
<stop offset="1" stop-color="#405CAF"/>
</linearGradient>
</defs>
</svg>
