<svg width="50" height="60" viewBox="0 0 50 60" fill="none" xmlns="http://www.w3.org/2000/svg">
<path d="M35.6258 35.3769C26.6757 35.3769 21.2268 28.5971 21.2268 17.6415C21.2268 6.70942 26.725 0 35.6258 0C44.5265 0 50 6.68596 50 17.6181C50 28.5502 44.5758 35.3769 35.6258 35.3769ZM35.6258 29.6997C39.8665 29.6997 42.4307 25.3597 42.4307 17.6415C42.4307 9.99375 39.8419 5.6772 35.6258 5.6772C31.4343 5.6772 28.7961 10.0172 28.7961 17.6415C28.7961 25.3363 31.385 29.6997 35.6258 29.6997Z" fill="url(#paint0_linear_837_88)"/>
<path d="M8.81278 19.8364V14.7189H12.9364C16.1882 14.7189 18.3796 12.7939 18.3796 10.0004C18.3796 7.2538 16.4238 5.44621 12.8893 5.44621C9.59038 5.44621 7.39896 7.39465 7.21045 10.3525H0.65978C0.918979 4.08466 5.8202 0 13.1956 0C20.2647 0 25.0952 3.61516 25.0952 9.0379C25.0952 13.193 22.244 16.1978 18.0733 16.949V17.0898C23.1394 17.5124 26.4148 20.5642 26.4148 25.2592C26.4148 31.3392 20.8773 35.3769 13.0307 35.3769C5.34893 35.3769 0.32989 31.1749 0 24.9305H6.80987C7.02195 27.7945 9.3783 29.6725 13.1249 29.6725C16.683 29.6725 19.1808 27.6771 19.1808 24.8131C19.1808 21.7144 16.848 19.8364 13.0071 19.8364H8.81278Z" fill="#4493E9"/>
<path d="M5.24895 55.0786V50.3502L5.86066 51.9704L0.76854 43.5056H3.61219L7.51395 50.003H5.8772L9.79548 43.5056H12.4242L7.33209 51.9704L7.92727 50.3502V55.0786H5.24895ZM16.7924 55.2109C15.7784 55.2109 14.8856 55.0125 14.114 54.6157C13.3535 54.2189 12.7639 53.6788 12.345 52.9955C11.9262 52.3011 11.7168 51.513 11.7168 50.6313C11.7168 49.7385 11.9207 48.9504 12.3285 48.2671C12.7473 47.5727 13.315 47.0326 14.0314 46.6469C14.7478 46.2501 15.5579 46.0517 16.4617 46.0517C17.3324 46.0517 18.115 46.239 18.8094 46.6138C19.5148 46.9775 20.0714 47.5066 20.4792 48.2009C20.887 48.8843 21.0909 49.7054 21.0909 50.6643C21.0909 50.7635 21.0854 50.8793 21.0744 51.0115C21.0634 51.1328 21.0523 51.2485 21.0413 51.3587H13.8165V49.8542H19.6856L18.6937 50.3006C18.6937 49.8377 18.6 49.4354 18.4126 49.0937C18.2252 48.752 17.9662 48.4875 17.6355 48.3001C17.3049 48.1017 16.9191 48.0025 16.4782 48.0025C16.0374 48.0025 15.6461 48.1017 15.3044 48.3001C14.9738 48.4875 14.7147 48.7575 14.5274 49.1102C14.34 49.4519 14.2463 49.8597 14.2463 50.3337V50.7305C14.2463 51.2154 14.351 51.6453 14.5604 52.02C14.7809 52.3838 15.084 52.6648 15.4697 52.8632C15.8665 53.0506 16.3295 53.1443 16.8585 53.1443C17.3324 53.1443 17.7458 53.0726 18.0985 52.9293C18.4622 52.7861 18.7928 52.5711 19.0904 52.2846L20.4627 53.7725C20.0549 54.2354 19.5423 54.5936 18.9251 54.8472C18.3079 55.0896 17.597 55.2109 16.7924 55.2109ZM28.0217 55.0786V53.3427L27.8563 52.9624V49.8542C27.8563 49.3031 27.6855 48.8733 27.3438 48.5647C27.0132 48.2561 26.5007 48.1017 25.8063 48.1017C25.3323 48.1017 24.8639 48.1789 24.401 48.3332C23.9491 48.4765 23.5633 48.6749 23.2437 48.9284L22.3178 47.1263C22.8028 46.7846 23.387 46.5201 24.0703 46.3327C24.7537 46.1454 25.4481 46.0517 26.1535 46.0517C27.5092 46.0517 28.5617 46.3713 29.3112 47.0106C30.0607 47.6498 30.4355 48.6473 30.4355 50.003V55.0786H28.0217ZM25.3103 55.2109C24.6159 55.2109 24.0207 55.0951 23.5247 54.8637C23.0287 54.6212 22.6485 54.2961 22.384 53.8882C22.1194 53.4804 21.9872 53.023 21.9872 52.516C21.9872 51.987 22.1139 51.524 22.3674 51.1273C22.632 50.7305 23.0453 50.4219 23.6074 50.2014C24.1695 49.97 24.9025 49.8542 25.8063 49.8542H28.1705V51.3587H26.0873C25.4811 51.3587 25.0623 51.4579 24.8308 51.6563C24.6104 51.8547 24.5002 52.1027 24.5002 52.4003C24.5002 52.7309 24.6269 52.9955 24.8804 53.1939C25.145 53.3812 25.5032 53.4749 25.9551 53.4749C26.3849 53.4749 26.7707 53.3757 27.1124 53.1773C27.454 52.9679 27.702 52.6648 27.8563 52.268L28.2531 53.4584C28.0658 54.0315 27.7241 54.4669 27.2281 54.7645C26.7321 55.0621 26.0928 55.2109 25.3103 55.2109ZM32.7697 55.0786V46.1839H35.2331V48.6969L34.8859 47.9695C35.1504 47.3412 35.5748 46.8673 36.1589 46.5477C36.7431 46.217 37.454 46.0517 38.2917 46.0517V48.4324C38.1815 48.4214 38.0823 48.4159 37.9941 48.4159C37.9059 48.4048 37.8122 48.3993 37.713 48.3993C37.0076 48.3993 36.4345 48.6032 35.9936 49.0111C35.5638 49.4078 35.3488 50.0306 35.3488 50.8793V55.0786H32.7697ZM42.8823 55.2109C42.1218 55.2109 41.3888 55.1227 40.6834 54.9464C39.989 54.759 39.4379 54.5275 39.0301 54.252L39.8898 52.4003C40.2976 52.6538 40.7771 52.8632 41.3282 53.0285C41.8903 53.1828 42.4414 53.26 42.9815 53.26C43.5766 53.26 43.9955 53.1884 44.238 53.0451C44.4915 52.9018 44.6182 52.7034 44.6182 52.4499C44.6182 52.2405 44.519 52.0862 44.3206 51.987C44.1333 51.8767 43.8797 51.7941 43.5601 51.739C43.2405 51.6839 42.8878 51.6288 42.502 51.5736C42.1273 51.5185 41.747 51.4469 41.3612 51.3587C40.9755 51.2595 40.6228 51.1162 40.3031 50.9289C39.9835 50.7415 39.7245 50.488 39.5261 50.1684C39.3387 49.8487 39.245 49.4354 39.245 48.9284C39.245 48.3663 39.4049 47.8703 39.7245 47.4404C40.0551 47.0106 40.5291 46.6744 41.1463 46.4319C41.7635 46.1784 42.502 46.0517 43.3617 46.0517C43.9679 46.0517 44.5852 46.1178 45.2134 46.2501C45.8416 46.3823 46.3652 46.5752 46.784 46.8287L45.9243 48.6639C45.4945 48.4104 45.0591 48.2395 44.6182 48.1513C44.1884 48.0521 43.7695 48.0025 43.3617 48.0025C42.7886 48.0025 42.3697 48.0797 42.1052 48.234C41.8407 48.3883 41.7084 48.5867 41.7084 48.8292C41.7084 49.0496 41.8021 49.215 41.9895 49.3252C42.1879 49.4354 42.4469 49.5236 42.7665 49.5897C43.0862 49.6558 43.4334 49.7165 43.8081 49.7716C44.1939 49.8157 44.5796 49.8873 44.9654 49.9865C45.3512 50.0857 45.6984 50.229 46.007 50.4163C46.3266 50.5927 46.5856 50.8407 46.784 51.1603C46.9824 51.4689 47.0816 51.8767 47.0816 52.3838C47.0816 52.9349 46.9163 53.4253 46.5856 53.8552C46.255 54.274 45.7755 54.6047 45.1473 54.8472C44.53 55.0896 43.775 55.2109 42.8823 55.2109Z" fill="#4493E9"/>
<defs>
<linearGradient id="paint0_linear_837_88" x1="49.5986" y1="18.0359" x2="21.8316" y2="17.006" gradientUnits="userSpaceOnUse">
<stop offset="0.0001" stop-color="#4493E9"/>
<stop offset="1" stop-color="#4493E9" stop-opacity="0"/>
</linearGradient>
</defs>
</svg>
